<?xml version="1.0" encoding="utf-8"?>
<svg version="1.1" id="Ebene_1" xmlns="http://www.w3.org/2000/svg" xmlns:xlink="http://www.w3.org/1999/xlink" x="0px" y="0px"
	 viewBox="0 0 178 178" xml:space="preserve" width="134px" height="134px">
<style type="text/css">
	.st0{fill:#EA161F;}
</style>
<g>
	<path d="M22.7395058,18.5443172c0,1.1440163-0.9836311,2.0563583-2.0706177,2.0563583
		c-1.1226215,0-2.0741787-0.8945332-2.0741787-2.0706062c0-1.1297569,0.9337387-2.0741825,2.0813065-2.0741825
		C21.8699169,16.4558868,22.7395058,17.4822788,22.7395058,18.5443172 M41.7100487,12.0045948
		c-0.3742065,1.0656004-0.9943199,2.1133909-1.9316216,2.8618031c0.9373016-0.2067137,2.1739693-0.6735706,3.2787704-0.2459087
		c1.404171,0.3742056,2.8297234,1.7569942,3.1290894,3.1968002c0.2779846,1.8639069-0.2815475,3.6601086-1.856781,4.7791653
		c-1.1582642,0.8018684-2.901001,1.0085831-4.2125092,0.4276619l-1.104805-0.6700096
		c0.3350067,2.1632862,2.3984909,4.1269798,4.3835754,5.2104034c2.4127502,1.1725121,5.859024,1.0834236,8.1826744-0.26017
		c1.5930557-0.8410759,2.9972267-2.5232296,3.7100029-4.1091557c0.8054352,2.2203026,3.3714294,4.5190086,5.9730606,4.87183
		c3.1290894,0.3385715,6.1227493-0.5203266,7.9225159-3.2859039c0.3955917-0.727026,0.9159164-1.4005985,1.1796417-2.1846561
		c-0.8232574,0.3742065-2.0777435,0.727026-3.1077042,0.3350105c-1.3685303-0.3528347-2.5873795-1.8318348-2.7905197-3.1896763
		c-0.3563919-1.9244995,0.4312286-3.738512,2.1133804-4.7827406c0.8054352-0.3385592,1.8959885-0.8018675,2.7762604-0.2637177
		l0.0926666-0.0748415c-1.1226273-0.9515638-1.3863525-2.3521624-1.1083679-3.7919683
		c0.6771393-2.3699846,2.9794083-3.8632607,4.5510788-5.8839736c-1.4219894,3.4569707-1.0834198,7.6409678-1.2509232,11.600441
		V34.289547H4.3819461V15.5542297C4.2714653,11.459322,4.0433764,6.9082417,3.1060736,5.0407739
		C5.1873832,7.4856,8.5017948,9.5241356,7.7533793,13.0167389c-0.3920288,0.5773449-0.5417113,1.2295446-1.179646,1.6785917
		c0.972939-0.3350115,2.3984938-0.1675062,3.2787724,0.5025034c1.5324707,1.1618252,2.0955639,3.0649414,1.6857147,4.875391
		c-0.3777714,1.3649654-1.6857147,2.7833996-3.11127,3.025732c-0.9907589,0.0962276-1.8532171-0.0748405-2.6230145-0.5025024
		c0.1888843,0.9159184,0.8446383,1.849659,1.4433718,2.6907349c1.7035341,2.4270039,4.4405947,2.9687157,7.1562738,2.8546658
		c2.6942978-0.3171883,5.4313583-2.295145,6.3294563-4.9466705c1.3507137,3.2466946,4.8112431,5.3066292,8.3323574,5.285244
		c3.5781364-0.0534573,6.9139328-2.6515274,8.0935783-5.9588146c0.0178185-0.0712795-0.0392036-0.1104755-0.0748405-0.1675072
		c-1.0869865,0.8054447-2.4376984,1.2509308-3.8775063,0.9159184c-1.5182133-0.1888771-2.8653622-1.7177849-3.2965927-3.1005745
		c-0.4098454-1.8318348,0.1318665-3.7563343,1.7783794-4.875391c1.2580509-0.8410759,3.2039318-0.9551258,4.5510769-0.4276619
		c-1.8175774-1.439806-2.4163132-3.58883-1.8567848-5.7948713c0.4526138-2.0136023,2.6408386-3.3215489,3.6173439-5.1319995
		C39.9281082,6.2738795,42.7186279,8.6046562,41.7100487,12.0045948 M76.0943909-0.0056853
		c-3.5211182,2.2060416-7.3023987,4.8219357-9.7757339,8.4820442c-0.8054352,1.176074-0.9729385,3.025732-0.506073,4.2944708
		c-0.8410721,0.0962267-1.5360336,0.5417118-2.1917839,1.0834236c-1.8710403,1.7213478-2.2452431,4.3693123-1.7569962,6.72505
		c0.3350029,1.8318348,2.0385437,3.9238281,3.9487801,4.2944717c-1.1226273,0.7626724-2.6194534,0.8802853-4.0450058,0.6771336
		c-1.6857147-0.2458954-3.1647301-1.6714554-4.0450096-3.1219597c1.3863525-0.6557484,2.4911613-2.1846561,2.5303612-3.7741451
		c0.0748405-1.5859261-0.8054352-2.8582411-1.9316216-3.8632479c-1.6286964-1.1618261-3.9879875-1.0655994-5.6558838-0.0962257
		c-1.5360298,1.1012325-2.2096062,2.7049818-2.095562,4.5403795c0.1853218,1.2651768,0.9729385,2.5018444,2.1882248,3.1183968
		c-0.4668732,0.9551277-1.4576302,1.9245014-2.3592911,2.6907368c-1.7961998,1.0620365-4.5510788,1.3043842-6.3294563,0.0748405
		c0.7092133-0.1318588,1.3649673-0.413414,2.0207214-0.6735706c2.0813103-1.3257713,2.8653603-3.4747944,2.961586-5.7913094
		c0.0534592-2.4270039-1.4077339-4.7435322-3.6351624-5.7129059c-0.4668655-0.1888914-0.990757-0.2102766-1.4219856-0.4312248
		c0.4668694-0.6557608,0.5595284-1.4754524,0.7484169-2.263073c0.0570221-4.3301177-4.665123-6.7749438-6.7428665-10.1784449
		v0.0962263c-1.7213554,3.1183972-5.4669991,4.9858656-6.4827042,8.4036274
		c-0.3314381,1.3471556-0.1675014,2.8903122,0.5096359,4.0343151c-0.7127781,0.149682-1.3685322,0.4312372-2.0242863,0.673584
		c-2.2452431,1.4398069-3.1825466,3.8097782-2.9615841,6.2938137c0.1888847,2.1454601,1.3899155,4.4085197,3.5424976,5.2103882
		c0.4526119,0.1318722,0.9194832,0.2423477,1.3471489,0.4312382c-0.8410778,0.5060654-1.796196,0.7448502-2.8653622,0.7448502
		c-2.544611,0.3171883-4.6045361-1.5502949-5.7307224-3.6030922c1.4647579-0.6735706,2.0064659-2.1846561,2.1917877-3.6244621
		c0.0178204-1.6073112-0.8232574-2.9330816-2.0955639-3.9380884c-1.5752354-0.9159174-3.916708-1.1974726-5.4919415-0.0962257
		c-1.3257637,1.0834227-2.302268,2.4483881-2.0955639,4.2018194c0.0392017,1.5324707,1.1796455,2.9722767,2.4341335,3.624464
		c-0.5809135,0.876709-1.3471489,1.8496571-2.2666321,2.427002c-1.6678944,0.8446388-4.2303286,1.1582642-5.7307215-0.0748405
		c0.8446379-0.2958031,1.6678982-0.6521854,2.362854-1.3435802c2.0207195-1.9031143,2.1739674-5.3066292,1.1796465-7.7336321
		c-0.6022987-1.436244-2.1205111-2.7406158-3.6315966-3.025733c0.8196917-1.7356091,0.0142546-3.6244621-0.9194832-5.0428967
		C6.5737333,4.5917263,3.0882573,1.8083268-0.001631,0.1653822c1.2723073,4.80055,1.6857183,10.8128214,1.6857183,17.0923729
		v19.7154045h72.8172379V19.5707226C74.447876,12.7922153,74.6367569,5.9709392,76.0943909-0.0056853 M57.5265617,18.5229321
		c0,1.1440163-0.9765053,2.0527954-2.0706177,2.0527954c-1.1226234,0-2.0741768-0.8945312-2.0741768-2.0706062
		c0-1.1226311,0.9337349-2.0670586,2.0848694-2.0670586C56.6605377,16.4380627,57.5265617,17.460907,57.5265617,18.5229321"/>
	<path d="M4.4553618,82.5334778v7.1170731c0.4882522,12.4379501,7.4378228,25.0434036,19.3091145,30.2751846
		c9.6830673,5.0250702,23.6998177,3.8561172,32.4669724-2.1953506L4.4553618,82.5334778z M26.0703087,42.2259636
		l45.6070061,30.7277946V42.2259636H26.0703087z M74.5569305,92.2094193
		c-0.9551239,12.6446533-9.3801422,25.0790405-21.4617004,30.3321991
		c-11.3117638,5.4883804-27.0249214,3.6565475-36.7471924-3.9594727
		C7.3599253,111.5933762,2.3776176,101.995842,1.7396829,91.1081772l0.0213834-51.533741h72.7424088L74.5569305,92.2094193z
		 M21.2020454,42.2259636H4.4411054l0.0213838,36.850544l54.28862,37.0216141
		c8.9916801-7.566124,12.9262047-18.8636246,12.9262047-24.4696121V76.3109436L21.2020454,42.2259636z"/>
	<path d="M24.177887,53.452198c0.0392017-0.3742027,0.3171844-0.7448502,0.6735725-0.9337387l0.7698002,0.0926628
		l3.7100029,2.0135918l0.3350048,0.5096397c0.2067032-0.6913948,0.1675014-1.5716782,1.0121403-1.9423256
		c0.748415-0.2601547,1.8354015-0.2815399,2.4305668,0.3314514c0.5488396,0.5595207,0.866024,1.3328934,0.6022987,2.1169395
		c-0.1675034,0.424099-0.6557541,0.8196907-1.0085793,1.0798607c2.5446129,0.6735725,4.7185783,2.2987061,7.0778694,3.4533958
		c0.6557579,0.3920288,0.7840538,1.126194,0.5809135,1.7569923l-0.3385658,0.4312401
		c0.2815437,0.3171883,0.8268166,0.3706436,1.1796417,0.6735687l19.5514603,13.1792374
		c3.0542488,1.6073151,2.7370605,4.8753891,3.300148,7.6623459c-0.8054352-0.0356369-1.9102364-0.2067032-2.7905159-0.506073
		c0.0641518,0.3100586,0.1104813,0.6201172,0.1675072,0.9194794l1.5182076,14.9576187
		c-0.1710663,1.5502853-1.4825745,2.6123276-2.362854,3.8668137l-3.0328636,3.7919693l-6.4791336-4.2053833
		c1.1404419-1.414856,2.6230202-2.7762604,4.551075-2.6836014c0.9729424-0.0748444,1.9458847,0.1069183,2.7726974,0.1675034
		c-1.0299606-0.3742142-2.195343-0.8232574-2.7726974-1.9458847c-1.94944-3.5638809-4.6080971-6.8533401-5.9944458-10.6667023
		c-0.6343727-2.1846542-0.114048-4.2445755,0.9159164-6.0799789c-0.1674995-0.0498962-0.3064957,0.0213852-0.5809135-0.060585
		c-2.002903-0.2815399-3.9879837-0.8054352-5.9730682-0.8375092l4.4584198,2.6123276
		c-0.9373055,3.2823334,0.3742065,6.4791336,2.1169434,9.0736389l-2.6230164,6.2189713
		c-0.392025,0.8054428-1.4611931,0.5809174-2.1917877,0.506073l-5.9730682-0.8375092
		c-0.1888847-2.5802536,0.2779846-5.0999146,0.2423477-7.7336197c2.1347656,0.5809097,4.1376648,2.1454544,5.3921509,4.1091537
		v-0.3385773l-5.6344986-9.0772018c-0.9943199-1.8104477-0.1817589-3.7634583,0.9408684-5.2424774
		c0,0-1.2616158,0.0570297-1.8959885-0.3670731c-0.6664467,0.7092133-6.9673901,9.2340164-6.9673901,9.2340164
		c-0.5238914,0.4276657-1.4041691,0.2423401-2.0242844,0.1675034l-6.15839-0.9337387l0.3314419-7.7336197
		c2.0813065,0.5595245,4.1804352,2.1311951,5.2282143,4.0378723c-0.6022949-4.2018127,0.0748425-8.8598099-0.242342-13.2790222
		c-0.3742104-1.2152863-0.8624611-2.3913651-1.8567829-3.3643112l-10.3744621-7.3023911v-2.4519501
		c1.49683,0.9551277,2.9402027,2.9936638,4.814806,2.0171661c0.6557541-0.559536,0.7840519-1.4326859,0.5809135-2.2559357
		l-0.3385715-0.598732l-4.9644871-3.435585c-0.3350048-1.4932747,0.3599529-3.396389-0.598732-4.6366196
		C18.9354153,50.3729973,21.5548706,51.9375534,24.177887,53.452198 M12.0393038,50.162735
		c-0.5025072,0.5274506-0.6913929,1.1796494-0.5773487,1.9458847c0.1318636,0.7804832,0.8802786,1.4148598,1.5146503,1.9244881
		l7.7585707,5.2995033v-0.837513c-2.0848713-1.6607704-4.2517109-3.0471191-6.3330183-4.7043266
		c-0.7840538-0.4918175-0.8624592-1.2723122-1.0121422-2.0242882c0.1140442-0.8909683,0.5238905-1.8247108,1.4398079-2.2773209
		C13.8960867,49.4749031,12.7734642,49.4535179,12.0393038,50.162735 M12.7164421,61.0896072
		c0.5025072,0.8196907,0.9765034,1.7213478,1.6857157,2.3557167l0.7662354-0.6735802
		C14.6266832,61.7097206,13.4826765,61.7809868,12.7164421,61.0896072 M11.3692942,62.1908379l1.6073112,2.3557243
		c0.3563871-0.0926666,0.6022959-0.4490433,0.9194813-0.6735764C13.3721962,62.8822327,12.2495728,62.6612701,11.3692942,62.1908379
		 M10.1896496,63.2742538l1.6073103,2.3557281l0.8446398-0.8410797
		C12.0606871,63.894371,11.0307245,63.7090492,10.1896496,63.2742538 M16.00947,63.7838898
		c-1.9993391,1.5075226-3.9487829,3.2110596-5.8982267,4.7969894c1.2580509,1.9957733,2.7014236,3.9238358,4.0485706,5.8804016
		c0.4134092,0.7519836,1.2331028,1.2544861,2.0207205,1.5110855c3.8240471,0.7519836,7.8476696,1.2366714,11.632513,1.8496628
		c-0.2637272-3.3215485,1.0085773-7.3344727-1.9494438-9.5797272l-8.3323574,1.9244995
		c-0.3563881,0.1318665-0.7163391,0.4668732-1.0121422,0.4312363c0.6343708-1.642952,0.9372997-3.7527695,0.2423439-5.4705582
		L16.00947,63.7838898z M8.8389378,64.2863998c0.5987329,0.78405,1.0477819,1.6964035,1.7783775,2.3521652l0.7519789-0.673584
		C10.8418388,64.9956131,9.7192173,64.7497025,8.8389378,64.2863998 M7.7519536,65.3876419l1.5182128,2.259491
		c0.3385696-0.1496811,0.7305975-0.3706436,0.9194832-0.7519684C9.5338955,65.9828033,8.6322317,65.7190781,7.7519536,65.3876419
		 M22.7558975,80.1813126c-1.0869827-0.060585-1.945879,0.3492584-2.8653603,0.6700058
		c0.9194813,0.1888962,1.8888588,0.2993774,2.8653603,0.413414V80.1813126z M19.8905373,82.6083145
		c0.9943218-0.0391998,1.9102402,0.4312286,2.8653603,0.2601624c-0.0356369-0.3706436,0.0534573-0.7804871-0.0962238-1.1012344
		C21.5762539,81.6745834,20.6959743,82.234108,19.8905373,82.6083145 M22.5848312,83.3709869
		c-1.0834198-0.0890961-1.9102421,0.4276733-2.7905197,0.8410797l2.7905197,0.4098434V83.3709869z M22.5848312,85.0567017
		c-1.1404419-0.1924438-1.945879,0.4098511-2.8653603,0.7412872c0.9373016,0.1496887,1.9316235,0.4312363,2.8653603,0.3421402
		V85.0567017z M22.4921703,86.6426315c-1.1261864-0.2245255-1.9102421,0.3563919-2.7726994,0.7626724
		c0.8624573,0.2459106,1.9494438,0.2280884,2.7726994,0.3421326V86.6426315z M35.9779015,91.1081772
		c0.898098,0.2352142,2.0207214,0.2209625,2.8653603,0.3350067c-0.0391998-0.3777695,0.0748444-0.7876205-0.0748405-1.1012421
		C37.7206421,90.3063049,36.6336555,90.8052521,35.9779015,91.1081772 M38.7684212,91.945694
		c-1.1226234-0.0926666-1.9672623,0.4312286-2.8653603,0.8410721c0.9372978,0.153244,1.9280586,0.4098434,2.8653603,0.3350067
		V91.945694z M35.8104019,94.3726959c0.9551163,0.1354294,1.9102402,0.4846878,2.8653603,0.3349991
		c-0.0213852-0.3492584,0.0748405-0.7626724-0.0748405-1.0834198
		C37.4390945,93.3427353,36.7441368,94.1303482,35.8104019,94.3726959 M38.5082588,95.2173309
		c-1.1261864-0.1175995-1.9316216,0.506073-2.8653603,0.8339539l2.9580231,0.3421249L38.5082588,95.2173309z M38.5082588,96.824646
		c-1.104805-0.0784073-2.0599251,0.3920288-2.8653603,0.8375092l2.8653603,0.3350067V96.824646z M50.3047104,103.7136307
		c-0.6379356,0.7662354-0.5025101,2.1133881-0.7484131,2.7620087c0.5452728-0.7234726,1.2366638-1.4184265,1.7605553-2.1846619
		C51.0174866,104.0272522,50.6610985,103.8775711,50.3047104,103.7136307 M51.6518555,104.5511398
		c-0.6165466,0.7876205-0.5773468,2.1133804-0.6700058,2.8582306c0.6165504-0.6129837,0.9693756-1.3293228,1.6108704-1.9387436
		C52.8172493,104.9788055,51.9726067,104.8326874,51.6518555,104.5511398 M53.0952301,105.4706268
		c-0.7662315,0.7448502-0.6379356,1.8674774-0.7662315,2.8546677l1.7783737-2.1810989
		C53.7509842,105.9161072,53.4516182,105.616745,53.0952301,105.4706268 M54.442379,106.4043579
		c-0.7662354,0.7448502-0.6343727,1.8460922-0.7662354,2.8582382l1.7819405-2.2844467
		C55.1373329,106.72155,54.7809486,106.5718689,54.442379,106.4043579 M55.793087,107.2454376
		c-0.5987282,0.8018723-0.7305946,1.8068848-0.7697983,2.8546677c0.5630951-0.7626724,1.2188492-1.475441,1.6892815-2.2773209
		C56.4132042,107.6374664,56.1280937,107.3559189,55.793087,107.2454376 M25.6034412,56.5848465
		c0.5310173,0,0.958683-0.4276619,0.958683-0.9551125s-0.4276657-0.9586906-0.958683-0.9586906
		c-0.5345821,0-0.9622498,0.4312401-0.9622498,0.9586906S25.0688591,56.5848465,25.6034412,56.5848465"/>
</g>
<rect x="1.7453852" y="162.0658875" class="st0" width="145.6452026" height="15.9341192"/>
</svg>
