<svg height="203" overflow="visible" viewBox="0 0 303 203" width="303" xmlns="http://www.w3.org/2000/svg"><g><defs><path id="path-1685715701623124217" d="M20.69139465148464 158.42693876730624 C21.112970862870064 157.69639622715277 22.936753593382438 158.47860246480394 23.272047240125666 157.81560040801017 C23.606157497527434 157.15499988185107 21.91165381106316 156.14845065741946 20.94355145208828 153.84907230989742 C20.768954088787133 153.4344131518026 19.668796464355513 150.82133229940078 20.48323796428537 150.01502865179236 C22.027006809232375 148.48669045076588 29.09133187086402 154.79376159458565 31.563522082817666 152.7297896954851 C32.10608861965707 152.27683946560555 32.48511773999414 151.37259647250244 34.12717281193284 149.90448640194168 C34.78042869443128 149.3204474934491 35.17543107427587 149.05674608793535 35.55772075680686 149.15485477212883 C36.100162463546944 149.29405631384725 36.143133976932994 150.04014722541677 36.72480229407984 151.50711297689307 C37.59712002125319 153.70712542867147 38.11304781490013 153.57428178536398 38.62130105404157 155.32953384250376 C38.99859753260018 156.63254381341284 38.91240983883349 157.3900933102539 39.35638556323884 157.53767455181486 C39.98465045985569 157.74653074488745 40.56293338470932 156.364454996163 41.35915468334404 156.48820053302816 C42.17164883372466 156.61449641332356 42.66286026770846 158.22369127718994 42.81801409474126 159.42852585472127 C43.10918279798084 161.68948997504157 42.30123246321505 163.18142035587076 41.85341696495495 164.75019458553078 C41.36677431260585 166.4550555511504 41.07795241523326 169.0477747079154 42.20178781290176 172.7181396851418 C42.20178781290176 172.7181396851418 53.32524317297899 204.92643199801853 53.32524317297899 204.92643199801853 C50.86952554093011 198.31738377132785 43.75905328818603 180.2002315325894 40.77123986802775 173.46776618347914 C39.908703827436256 171.52424541383473 38.95636002019809 169.55291717729125 37.00089152132296 168.77489822382347 C35.11822892956863 168.02581566191205 32.53263806219895 168.4730494278451 29.236314541405132 167.65694466162137 C28.851338515137005 167.56165315759543 27.783032538845017 167.28231101410276 27.64857054907363 166.63655584718686 C27.537391869425303 166.10269250823453 28.165781596141446 165.80469745051803 28.069233004132116 165.30468645685713 C27.939739252313228 164.63399744944238 26.704026126440287 164.62576143092 25.185492934369506 163.85198620786835 C24.114715322111195 163.30634613215034 23.447623271405373 162.65745563357262 22.873974039838114 162.09942817547858 C22.701024433847856 161.93119274416543 20.130148538584685 159.39942012446627 20.69136968546479 158.4269336358306 C20.69136968546479 158.4269336358306 20.691399644688623 158.4269336358306 20.691399644688623 158.4269336358306 C20.691399644688623 158.4269336358306 20.69139465148464 158.42693876730624 20.69139465148464 158.42693876730624 Z" vector-effect="non-scaling-stroke"/></defs> <path d="M250.50513427188287 156.16716610684688 C250.92671048326827 155.4366235666934 252.75049321378071 156.21882980434458 253.08578686052385 155.55582774755078 C253.41989711792564 154.89522722139168 251.72539343146138 153.8886779969601 250.7572910724865 151.5892996494381 C250.58269370918538 151.1746404913432 249.48253608475375 148.5615596389414 250.29697758468365 147.755255991333 C251.8407464296306 146.22691779030652 258.9050714912622 152.53398893412628 261.37726170321594 150.47001703502576 C261.91982824005527 150.01706680514621 262.2988573603924 149.11282381204308 263.94091243233106 147.6447137414823 C264.5941683148295 147.06067483298978 264.98917069467404 146.79697342747602 265.37146037720504 146.89508211166947 C265.9139020839451 147.0342836533879 265.9568735973312 147.7803745649574 266.53854191447806 149.24734031643368 C267.4108596416514 151.4473527682121 267.92678743529837 151.3145091249046 268.43504067443973 153.06976118204443 C268.81233715299845 154.37277115295348 268.7261494592317 155.1303206497945 269.1701251836371 155.2779018913555 C269.79839008025397 155.48675808442806 270.3766730051076 154.10468233570361 271.1728943037423 154.22842787256877 C271.9853884541229 154.35472375286417 272.47659988810665 155.96391861673055 272.63175371513944 157.1687531942619 C272.922922418379 159.4297173145822 272.1149720836132 160.92164769541137 271.66715658535315 162.49042192507142 C271.180513933004 164.19528289069103 270.89169203563154 166.78800204745608 272.0155274333 170.45836702468245 C272.0155274333 170.45836702468245 283.1389827933772 202.66665933755917 283.1389827933772 202.66665933755917 C280.68326516132834 196.0576111108685 273.57279290858423 177.94045887213008 270.5849794884259 171.2079935230198 C269.7224434478345 169.26447275337534 268.7700996405963 167.2931445168319 266.8146311417212 166.5151255633641 C264.9319685499669 165.76604300145266 262.3463776825972 166.21327676738576 259.05005416180336 165.397172001162 C258.6650781355353 165.30188049713604 257.5967721592432 165.02253835364343 257.46231016947183 164.3767831867275 C257.3511314898235 163.8429198477752 257.97952121653964 163.54492479005864 257.88297262453034 163.04491379639774 C257.7534788727114 162.37422478898304 256.51776574683856 162.3659887704606 254.9992325547678 161.59221354740896 C253.92845494250946 161.04657347169098 253.26136289180363 160.39768297311326 252.68771366023634 159.83965551501922 C252.51476405424603 159.67142008370604 249.94388815898287 157.13964746400688 250.50510930586302 156.16716097537125 C250.50510930586302 156.16716097537125 250.50513926508688 156.16716097537125 250.50513926508688 156.16716097537125 C250.50513926508688 156.16716097537125 250.50513427188287 156.16716610684688 250.50513427188287 156.16716610684688 Z" style="stroke-width: 0; stroke-linecap: butt; stroke-linejoin: miter; fill: rgb(22, 204, 119);" vector-effect="non-scaling-stroke"/></g><g><defs><path id="path-1685715701623124215" d="M13.11661840157205 175.38273542224414 C13.587152977906364 175.3845827535016 13.739795223341075 176.53018983833132 14.153172593803896 176.50801673176716 C14.5650719758909 176.48593599176598 14.556858155356386 175.34081126565334 15.3756587223541 174.18905154144136 C15.523317750224402 173.98135506188035 16.453841256103416 172.67245928832625 17.073922291409566 172.85063438809948 C18.249247608440932 173.18832654194637 17.275398071693854 178.5713471964034 18.97442560095709 179.22280856431433 C19.3472831211843 179.3657868721588 19.88851147935912 179.29606551162044 21.063427353664757 179.70072342354683 C21.530841177516344 179.8617080796751 21.770744655571818 179.98485836535733 21.834198291652434 180.20599417981572 C21.924225759273877 180.51975826240388 21.58031883567834 180.75672467944293 21.047548965032686 181.47336092040888 C20.24855643819329 182.54812285151854 20.46086747109757 182.77004378176147 19.76924380927559 183.5328427782589 C19.255812617614836 184.09911138635084 18.869148888404084 184.27421786364658 18.926775455448958 184.54073644932748 C19.008299496705504 184.91789478289792 19.8352090269543 184.81081114767912 20.00584178630138 185.24811550810392 C20.179949815613213 185.69437942512687 19.553162907372197 186.40643838975512 19.022530128026705 186.83233034818994 C18.02674045302511 187.6315576907876 17.081112505129745 187.65449538723334 16.20268309629426 187.8812706935023 C15.248067381248662 188.12771494618673 13.926486126663223 188.73012453773887 12.497855572114593 190.35600696063005 C12.497855572114593 190.35600696063005 0.3252431729792663 205.2597726604576 0.3252431729792663 205.2597726604576 C2.773051569935956 202.11419344164364 9.373872486426379 193.30030917600214 11.727084634126923 189.85072080993416 C12.406410034565 188.8549015012226 13.073092642545092 187.80574050245446 12.880434860475985 186.5949072298126 C12.694972285331021 185.42915910280175 11.735358373109102 184.2540460326111 11.174017389333658 182.35591316566513 C11.108446634768773 182.13422828330522 10.933619584084921 181.51478219237958 11.203212652959985 181.26063559464728 C11.4260992918777 181.05052732150008 11.749723820937552 181.28151043785545 11.960666715953405 181.0885310306448 C12.243606619046563 180.82968400115743 11.890996540927224 180.20402369314112 11.822409891163037 179.21482398810187 C11.774045717486864 178.5172973626982 11.891470895304597 177.99359434566128 11.99245345244138 177.54322524806645 C12.022897017060789 177.4074515321255 12.490250922464714 175.38021586766808 13.11660841516411 175.3826892389627 C13.11660841516411 175.3826892389627 13.11660841516411 175.38273542224414 13.11660841516411 175.38273542224414 C13.11660841516411 175.38273542224414 13.11661840157205 175.38273542224414 13.11661840157205 175.38273542224414 Z" vector-effect="non-scaling-stroke"/></defs> <path d="M294.2774180748643 173.12296276178648 C294.7479526511986 173.12481009304395 294.90059489663327 174.2704171778737 295.3139722670961 174.2482440713095 C295.7258716491831 174.22616333130833 295.7176578286486 173.08103860519566 296.53645839564626 171.9292788809837 C296.68411742351657 171.72158240142267 297.6146409293956 170.4126866278686 298.23472196470175 170.59086172764182 C299.4100472817331 170.9285538814887 298.4361977449861 176.31157453594574 300.13522527424925 176.96303590385668 C300.50808279447654 177.1060142117011 301.0493111526513 177.03629285116278 302.224227026957 177.44095076308918 C302.69164085080854 177.60193541921745 302.931544328864 177.7250857048997 302.9949979649447 177.94622151935806 C303.0850254325661 178.25998560194625 302.74111850897054 178.49695201898527 302.2083486383249 179.21358825995122 C301.4093561114855 180.28835019106089 301.6216671443898 180.51027112130384 300.93004348256784 181.27307011780124 C300.4166122909071 181.83933872589319 300.0299485616963 182.01444520318893 300.08757512874115 182.28096378886983 C300.1690991699977 182.65812212244026 300.99600870024653 182.5510384872215 301.1666414595936 182.98834284764627 C301.34074948890543 183.43460676466918 300.71396258066443 184.14666572929747 300.1833298013189 184.57255768773229 C299.18754012631734 185.37178503032993 298.241912178422 185.39472272677568 297.3634827695864 185.62149803304465 C296.4088670545409 185.8679422857291 295.08728579995545 186.47035187728125 293.65865524540686 188.0962343001724 C293.65865524540686 188.0962343001724 281.4860428462715 202.99999999999994 281.4860428462715 202.99999999999994 C283.9338512432282 199.85442078118598 290.53467215971864 191.0405365155445 292.8878843074191 187.5909481494765 C293.5672097078573 186.59512884076491 294.23389231583735 185.5459678419968 294.04123453376815 184.33513456935498 C293.8557719586232 183.1693864423441 292.8961580464013 181.99427337215343 292.3348170626259 180.09614050520747 C292.26924630806104 179.87445562284756 292.0944192573771 179.25500953192193 292.36401232625224 179.00086293418963 C292.5868989651699 178.79075466104246 292.9105234942298 179.0217377773978 293.1214663892456 178.82875837018713 C293.40440629233876 178.56991134069978 293.0517962142194 177.9442510326835 292.98320956445525 176.95505132764424 C292.93484539077906 176.25752470224052 293.0522705685968 175.73382168520362 293.1532531257336 175.2834525876088 C293.18369669035303 175.14767887166784 293.65105059575694 173.12044320721043 294.27740808845635 173.12291657850506 C294.27740808845635 173.12291657850506 294.27740808845635 173.12296276178648 294.27740808845635 173.12296276178648 C294.27740808845635 173.12296276178648 294.2774180748643 173.12296276178648 294.2774180748643 173.12296276178648 Z" style="stroke-width: 0; stroke-linecap: butt; stroke-linejoin: miter; fill: rgb(22, 204, 119);" vector-effect="non-scaling-stroke"/></g><g><defs><path id="path-1685715701622124213" d="M30.014849736233998 177.5482643572166 C30.014849736233998 177.5482643572166 30.2983388917641 174.9475400983363 30.2983388917641 174.9475400983363 C30.2983388917641 174.9475400983363 30.168815180721367 174.75037853841803 30.168815180721367 174.75037853841803 C29.56945594190048 173.83868464257674 29.263966729668187 172.94833255423384 29.260306711156446 172.103193898415 C29.259697540271844 171.9688313382957 29.26580922193398 171.8344533837492 29.271915910392163 171.69758153200542 C29.2963576438368 171.1550870509008 29.32689607933169 170.4807341698255 28.984756749942377 169.69461774767962 C28.792907866916785 169.25635893277178 28.254031307812937 168.24168145080796 27.443883963299324 168.36725892450335 C27.225765834175217 168.39865842440287 27.06080036133674 168.5016214846225 26.935555826098327 168.622175243593 C26.917225774315828 168.59204321819516 26.89828155844474 168.56190092984568 26.878123994008345 168.52924934987175 C26.625797424469692 168.13367928143632 26.42600934712806 167.96415584971842 26.233556286421813 167.80090308132424 C26.08570252359659 167.6753256076289 25.932955420878468 167.54598676223455 25.69345639234475 167.23957095286994 C25.58837441474666 167.10520839275077 25.506500849212063 166.98716392540493 25.437454824682412 166.88795710540853 C25.227885060758958 166.5878324852704 24.954182585014653 166.2299223171068 24.47151452302754 166.23620324338188 C23.9558613555991 166.26132181700632 23.685808911958578 166.6995857633899 23.50679256314193 166.98966808555377 C23.18725247493146 167.50704399303402 23.042459546141274 167.8800201738967 22.946535104628488 168.12739835516126 C22.91170251371738 168.21782008873376 22.8719915625253 168.31953106887897 22.85182900488494 168.3509305687784 C22.68564519027723 168.60208551616913 21.334773801190014 168.36724866155194 20.825856465920257 168.28185577418003 C19.682727328102608 168.08595142581188 18.69356363477234 167.91642799409405 18.28603829936511 168.65733611519158 C17.993985799022422 169.18726874374627 18.210885586377294 169.8879922785203 18.950174373319307 170.79592993413837 C19.18051087256375 171.0784843814285 19.425512411874998 171.29321611419465 19.643016376910502 171.46149772878945 C19.46278168632461 171.57200918978583 19.301501198017746 171.7415326215036 19.236100212387903 172.00776384454474 C19.236100212387903 172.00776384454474 19.236100212387903 172.00776384454474 19.236100212387903 172.00776384454474 C19.082134767900538 172.63816050464595 19.60940212776867 173.26981950777304 20.80263307424486 173.8876697097513 C21.098949770779935 174.0421219972944 21.497916754578558 174.2480840380639 22.056950878118773 174.34729085806023 C22.320277476008528 174.39375637065874 22.557339821003744 174.4050610116587 22.76017375276851 174.4113419379338 C22.76445792177678 174.5318905654285 22.791945509644567 174.6624968853244 22.863428217712716 174.7968594454437 C23.07299798163617 175.1924295138791 23.509214267068508 175.38079059294637 24.166629488475923 175.3355822918979 C24.890024907173935 175.29664978564892 25.485709147871205 175.15475421918026 26.01114899508544 175.0304288255594 C26.46997950130855 174.92243691913896 26.865286466595457 174.83076310549208 27.175654039108707 174.8521100444662 C27.751180715369593 174.89982763713908 28.19476197666116 175.37325758659688 28.71529350437059 175.98733615392467 C28.71529350437059 175.98733615392467 30.014824770214105 177.5482643572166 30.014824770214105 177.5482643572166 C30.014824770214105 177.5482643572166 30.014839749826024 177.5482643572166 30.014839749826024 177.5482643572166 C30.014839749826024 177.5482643572166 30.014849736233998 177.5482643572166 30.014849736233998 177.5482643572166 Z" vector-effect="non-scaling-stroke"/></defs> <path d="M284.8810916865141 175.28849169676016 C284.8810916865141 175.28849169676016 285.1645808420441 172.68776743787987 285.1645808420441 172.68776743787987 C285.1645808420441 172.68776743787987 285.0350571310014 172.49060587796163 285.0350571310014 172.49060587796163 C284.43569789218054 171.5789119821203 284.13020867994817 170.68855989377744 284.12654866143646 169.84342123795858 C284.1259394905519 169.70905867783927 284.132051172214 169.57468072329277 284.1381578606722 169.437808871549 C284.16259959411684 168.89531439044436 284.19313802961176 168.2209615093691 283.85099870022236 167.4348450872232 C283.65914981719686 166.99658627231537 283.120273258093 165.98190879035155 282.3101259135793 166.10748626404694 C282.0920077844553 166.13888576394646 281.9270423116168 166.24184882416608 281.8017977763784 166.3624025831366 C281.7834677245959 166.33227055773875 281.7645235087248 166.3021282693893 281.74436594428835 166.26947668941534 C281.49203937474977 165.87390662097994 281.29225129740803 165.704383189262 281.0997982367019 165.54113042086783 C280.95194447387667 165.4155529471725 280.79919737115847 165.2862141017781 280.55969834262476 164.97979829241353 C280.4546163650267 164.8454357322944 280.37274279949213 164.72739126494855 280.3036967749624 164.62818444495213 C280.09412701103895 164.32805982481398 279.8204245352947 163.9701496566504 279.33775647330754 163.97643058292545 C278.8221033058792 164.0015491565499 278.5520508622386 164.4398131029335 278.373034513422 164.72989542509737 C278.0534944252115 165.2472713325776 277.90870149642126 165.6202475134403 277.81277705490857 165.86762569470488 C277.7779444639974 165.95804742827738 277.7382335128053 166.05975840842257 277.718070955165 166.09115790832197 C277.55188714055726 166.34231285571275 276.2010157514701 166.1074760010955 275.69209841620034 166.02208311372362 C274.54896927838263 165.8261787653555 273.55980558505235 165.65665533363767 273.1522802496452 166.39756345473518 C272.86022774930245 166.92749608328984 273.0771275366574 167.6282196180639 273.81641632359936 168.53615727368197 C274.0467528228438 168.8187117209721 274.2917543621551 169.03344345373824 274.50925832719054 169.20172506833308 C274.3290236366047 169.31223652932943 274.16774314829775 169.4817599610472 274.1023421626679 169.74799118408833 C274.1023421626679 169.74799118408833 274.1023421626679 169.74799118408833 274.1023421626679 169.74799118408833 C273.9483767181806 170.37838784418955 274.47564407804873 171.01004684731663 275.66887502452494 171.62789704929492 C275.9651917210599 171.78234933683802 276.3641587048586 171.9883113776075 276.9231928283988 172.0875181976038 C277.18651942628856 172.1339837102023 277.4235817712838 172.14528835120228 277.62641570304856 172.1515692774774 C277.63069987205677 172.2721179049721 277.65818745992465 172.402724224868 277.7296701679927 172.5370867849873 C277.9392399319162 172.9326568534227 278.3754562173485 173.12101793248996 279.03287143875593 173.07580963144153 C279.75626685745397 173.03687712519252 280.3519510981512 172.89498155872388 280.8773909453655 172.770656165103 C281.3362214515886 172.66266425868253 281.73152841687545 172.5709904450357 282.04189598938876 172.5923373840098 C282.61742266564966 172.64005497668268 283.0610039269412 173.11348492614047 283.58153545465063 173.72756349346827 C283.58153545465063 173.72756349346827 284.8810667204941 175.28849169676016 284.8810667204941 175.28849169676016 C284.8810667204941 175.28849169676016 284.88108170010605 175.28849169676016 284.88108170010605 175.28849169676016 C284.88108170010605 175.28849169676016 284.8810916865141 175.28849169676016 284.8810916865141 175.28849169676016 Z" style="stroke-width: 0; stroke-linecap: butt; stroke-linejoin: miter; fill: rgb(22, 204, 119);" vector-effect="non-scaling-stroke"/></g><g><defs><path id="path-1685715701622124211" d="M7.685783469299931 162.06355916022713 C7.685783469299931 162.06355916022713 10.061759633910492 163.00504127259345 10.061759633910492 163.00504127259345 C10.061759633910492 163.00504127259345 10.280182348476933 162.92628851479677 10.280182348476933 162.92628851479677 C11.290327484899057 162.56172282263086 12.205831433229266 162.4838783360356 13.002232487207039 162.69461264921992 C13.128860139945807 162.72809552825962 13.25378011692605 162.76824419425313 13.381066872589164 162.80903942618679 C13.885475344671903 162.97093235351642 14.512461981071837 163.17235303827826 15.339156803549857 163.03163257974805 C15.800334115639997 162.95209470616712 16.89205322535838 162.67376859486583 16.979349410406964 161.8365683319781 C17.005119336108258 161.6117840382863 16.95004429629324 161.42167312600026 16.868340499693698 161.26658966694413 C16.901360557562835 161.25601882697143 16.934535404755128 161.24483734138866 16.97037662286865 161.2330759990501 C17.406702758788413 161.08256981633167 17.616941612044165 160.9269680782284 17.819426019530876 160.777057146693 C17.975129099000632 160.66192222607756 18.13561566787591 160.54289251539439 18.484765455642417 160.3825338993035 C18.63789204186246 160.3121557098734 18.769762558772193 160.26071266583148 18.88065163259013 160.21724393505048 C19.216299796815413 160.08505712063427 19.622591810841477 159.90373129477217 19.739103232332273 159.42232703205337 C19.846257389578895 158.90335523562575 19.502240615495946 158.52373892518796 19.274615426008474 158.2721939856431 C18.86868791587237 157.82331301600553 18.554375712220946 157.58476610444635 18.34585452113167 157.42666020619416 C18.269588323658017 157.36911070605152 18.183919923104412 157.30382294053058 18.159478189659765 157.27582047755445 C17.965237561931417 157.0469156088636 18.52891037196196 155.76361050469978 18.738370285398037 155.2793582729593 C19.21271467636326 154.19269131819092 19.623181008910223 153.2523894452391 19.029174484747656 152.65934479686663 C18.604457548063596 152.2346125519434 17.889900100396613 152.27247771124374 16.84780345175543 152.77709163862113 C16.523429942099707 152.93439702666169 16.259174608271074 153.12347651232906 16.04561028116973 153.2970178895317 C15.987309631588577 153.089819163115 15.868666112001593 152.8864741749602 15.634654614633483 152.75395894609827 C15.634654614633483 152.75395894609827 15.634654614633483 152.75395894609827 15.634654614633483 152.75395894609827 C15.080354048459029 152.44101076814874 14.35208526268396 152.80492989437454 13.467878716852429 153.83437576344582 C13.247338883801705 154.08975904682558 12.95228546787163 154.43412211910191 12.717115547181933 154.9646859191695 C12.606595970457954 155.21466575862138 12.535827290557846 155.44745515442844 12.478455376915559 155.6475108666499 C12.363896298177956 155.62118639623247 12.234008083245234 155.61539296015025 12.089399903002024 155.65236524267624 C11.66392399931419 155.7603571490966 11.375970919432788 156.1462184654794 11.251779950232518 156.81120640337488 C11.104929821405733 157.5401941063866 11.087393689054847 158.1683483116004 11.0711308237169 158.72221414288938 C11.056395878794488 159.20573257360272 11.042419900875895 159.6219465688392 10.943589414651191 159.9250628393191 C10.752689240380334 160.48508130999025 10.194578859574987 160.80593709201656 9.484545254706934 161.16763942073348 C9.484545254706934 161.16763942073348 7.685723550852266 162.06354889727575 7.685723550852266 162.06354889727575 C7.685723550852266 162.06354889727575 7.685783469299936 162.06356429170293 7.685783469299936 162.06356429170293 C7.685783469299936 162.06356429170293 7.685783469299931 162.06355916022713 7.685783469299931 162.06355916022713 Z" vector-effect="non-scaling-stroke"/></defs> <path d="M283.56603654952016 159.80378649977217 C283.56603654952016 159.80378649977217 285.94201271413067 160.7452686121385 285.94201271413067 160.7452686121385 C285.94201271413067 160.7452686121385 286.16043542869716 160.6665158543418 286.16043542869716 160.6665158543418 C287.1705805651193 160.3019501621759 288.08608451344946 160.22410567558063 288.88248556742724 160.43483998876502 C289.009113220166 160.46832286780466 289.1340331971462 160.50847153379823 289.26131995280934 160.5492667657319 C289.76572842489213 160.71115969306152 290.39271506129205 160.91258037782336 291.21940988377 160.7718599192931 C291.6805871958602 160.69232204571222 292.7723063055786 160.41399593441088 292.85960249062714 159.5767956715232 C292.88537241632844 159.35201137783133 292.8302973765134 159.16190046554533 292.74859357991386 159.0068170064892 C292.78161363778304 158.99624616651647 292.81478848497534 158.98506468093376 292.8506297030889 158.9733033385952 C293.28695583900867 158.82279715587674 293.4971946922643 158.66719541777348 293.69967909975105 158.51728448623805 C293.8553821792208 158.4021495656226 294.01586874809607 158.28311985493946 294.36501853586265 158.12276123884857 C294.5181451220826 158.0523830494185 294.6500156389924 158.00094000537655 294.7609047128103 157.95747127459555 C295.0965528770356 157.82528446017932 295.5028448910617 157.64395863431724 295.61935631255244 157.16255437159845 C295.7265104697991 156.64358257517085 295.3824936957161 156.26396626473303 295.1548685062287 156.01242132518814 C294.74894099609253 155.56354035555057 294.4346287924411 155.3249934439914 294.2261076013518 155.1668875457392 C294.1498414038782 155.1093380455966 294.06417300332464 155.04405028007568 294.03973126988 155.01604781709955 C293.8454906421516 154.7871429484087 294.40916345218216 153.50383784424486 294.6186233656182 153.0195856125044 C295.09296775658345 151.93291865773597 295.50343408913045 150.99261678478416 294.9094275649678 150.39957213641173 C294.4847106282838 149.9748398914885 293.77015318061683 150.01270505078878 292.72805653197565 150.5173189781662 C292.4036830223199 150.67462436620679 292.1394276884913 150.8637038518741 291.92586336138993 151.0372452290768 C291.8675627118088 150.83004650266008 291.7489191922218 150.62670151450527 291.5149076948537 150.4941862856433 C291.5149076948537 150.4941862856433 291.5149076948537 150.4941862856433 291.5149076948537 150.4941862856433 C290.96060712867927 150.18123810769384 290.2323383429042 150.5451572339196 289.3481317970726 151.57460310299086 C289.1275919640219 151.82998638637065 288.83253854809186 152.174349458647 288.59736862740215 152.70491325871456 C288.4868490506782 152.95489309816645 288.416080370778 153.1876824939735 288.3587084571358 153.38773820619497 C288.2441493783981 153.36141373577755 288.11426116346547 153.35562029969532 287.9696529832222 153.3925925822213 C287.5441770795344 153.50058448864166 287.256223999653 153.88644580502444 287.1320330304527 154.55143374291993 C286.9851829016259 155.28042144593167 286.967646769275 155.9085756511455 286.9513839039371 156.46244148243443 C286.93664895901463 156.94595991314782 286.92267298109607 157.3621739083843 286.8238424948714 157.6652901788642 C286.6329423206005 158.22530864953535 286.0748319397952 158.54616443156164 285.3647983349272 158.90786676027858 C285.3647983349272 158.90786676027858 283.56597663107243 159.8037762368208 283.56597663107243 159.8037762368208 C283.56597663107243 159.8037762368208 283.56603654952016 159.80379163124803 283.56603654952016 159.80379163124803 C283.56603654952016 159.80379163124803 283.56603654952016 159.80378649977217 283.56603654952016 159.80378649977217 Z" style="stroke-width: 0; stroke-linecap: butt; stroke-linejoin: miter; fill: rgb(22, 204, 119);" vector-effect="non-scaling-stroke"/></g><g><defs><path id="path-1685715701622124209" d="M30.014849736233998 154.4017527702937 C30.014849736233998 154.4017527702937 30.2983388917641 151.8010285114135 30.2983388917641 151.8010285114135 C30.2983388917641 151.8010285114135 30.168815180721367 151.60386695149515 30.168815180721367 151.60386695149515 C29.56945594190048 150.69217305565383 29.263966729668187 149.80182096731093 29.260306711156446 148.95668231149213 C29.259697540271844 148.82231975137276 29.26580922193398 148.68794179682638 29.271915910392163 148.55106994508256 C29.2963576438368 148.0085754639778 29.32689607933169 147.33422258290278 28.984756749942377 146.54810616075667 C28.792907866916785 146.10984734584892 28.254031307812937 145.09516986388516 27.443883963299324 145.22074733758043 C27.225765834175217 145.25214683748004 27.06080036133674 145.3551098976997 26.935555826098327 145.47566365667015 C26.917225774315828 145.44553163127216 26.89828155844474 145.4153893429228 26.878123994008345 145.38273776294878 C26.625797424469692 144.98716769451343 26.42600934712806 144.8176442627956 26.233556286421813 144.6543914944014 C26.08570252359659 144.52881402070602 25.932955420878468 144.39947517531166 25.69345639234475 144.09305936594714 C25.58837441474666 143.95869680582783 25.506500849212063 143.84065233848204 25.437454824682412 143.74144551848568 C25.227885060758958 143.4413208983476 24.954182585014653 143.08341073018394 24.47151452302754 143.089691656459 C23.9558613555991 143.11481023008344 23.685808911958578 143.553074176467 23.50679256314193 143.84315649863086 C23.18725247493146 144.3605324061112 23.042459546141274 144.7335085869739 22.946535104628488 144.98088676823835 C22.91170251371738 145.0713085018108 22.8719915625253 145.17301948195606 22.85182900488494 145.20441898185564 C22.68564519027723 145.4555739292463 21.334773801190014 145.22073707462908 20.825856465920257 145.1353441872572 C19.682727328102608 144.939439838889 18.69356363477234 144.76991640717114 18.28603829936511 145.51082452826864 C17.993985799022422 146.04075715682336 18.210885586377294 146.7414806915975 18.950174373319307 147.64941834721537 C19.18051087256375 147.9319727945056 19.425512411874998 148.14670452727182 19.643016376910502 148.31498614186663 C19.46278168632461 148.42549760286298 19.301501198017746 148.59502103458078 19.236100212387903 148.86125225762186 C19.236100212387903 148.86125225762186 19.236100212387903 148.86125225762186 19.236100212387903 148.86125225762186 C19.082134767900538 149.49164891772313 19.60940212776867 150.12330792085024 20.80263307424486 150.7411581228284 C21.098949770779935 150.89561041037163 21.497916754578558 151.10157245114107 22.056950878118773 151.20077927113746 C22.320277476008528 151.2472447837359 22.557339821003744 151.25854942473583 22.76017375276851 151.26483035101086 C22.76445792177678 151.38537897850566 22.791945509644567 151.51598529840157 22.863428217712716 151.65034785852083 C23.07299798163617 152.04591792695618 23.509214267068508 152.23427900602354 24.166629488475923 152.1890707049751 C24.890024907173935 152.15013819872613 25.485709147871205 152.00824263225735 26.01114899508544 151.8839172386365 C26.46997950130855 151.77592533221616 26.865286466595457 151.68425151856925 27.175654039108707 151.70559845754332 C27.751180715369593 151.7533160502162 28.19476197666116 152.22674599967397 28.71529350437059 152.8408245670018 C28.71529350437059 152.8408245670018 30.014824770214105 154.4017527702937 30.014824770214105 154.4017527702937 C30.014824770214105 154.4017527702937 30.014839749826024 154.4017527702937 30.014839749826024 154.4017527702937 C30.014839749826024 154.4017527702937 30.014849736233998 154.4017527702937 30.014849736233998 154.4017527702937 Z" vector-effect="non-scaling-stroke"/></defs> <path d="M284.8810916865141 152.1419801098366 C284.8810916865141 152.1419801098366 285.1645808420441 149.54125585095642 285.1645808420441 149.54125585095642 C285.1645808420441 149.54125585095642 285.0350571310014 149.34409429103806 285.0350571310014 149.34409429103806 C284.43569789218054 148.43240039519674 284.13020867994817 147.54204830685387 284.12654866143646 146.69690965103507 C284.1259394905519 146.5625470909157 284.132051172214 146.42816913636932 284.1381578606722 146.29129728462544 C284.16259959411684 145.74880280352068 284.19313802961176 145.0744499224457 283.85099870022236 144.2883335002996 C283.65914981719686 143.85007468539186 283.120273258093 142.8353972034281 282.3101259135793 142.96097467712332 C282.0920077844553 142.99237417702295 281.9270423116168 143.09533723724257 281.8017977763784 143.21589099621303 C281.7834677245959 143.18575897081507 281.7645235087248 143.15561668246573 281.74436594428835 143.12296510249166 C281.49203937474977 142.72739503405637 281.29225129740803 142.55787160233854 281.0997982367019 142.39461883394432 C280.95194447387667 142.26904136024893 280.79919737115847 142.13970251485455 280.55969834262476 141.83328670549008 C280.4546163650267 141.6989241453707 280.37274279949213 141.58087967802498 280.3036967749624 141.48167285802856 C280.09412701103895 141.18154823789052 279.8204245352947 140.82363806972683 279.33775647330754 140.82991899600188 C278.8221033058792 140.85503756962635 278.5520508622386 141.29330151600993 278.373034513422 141.58338383817375 C278.0534944252115 142.1007597456541 277.90870149642126 142.47373592651684 277.81277705490857 142.72111410778126 C277.7779444639974 142.8115358413537 277.7382335128053 142.913246821499 277.718070955165 142.94464632139852 C277.55188714055726 143.19580126878918 276.2010157514701 142.960964414172 275.69209841620034 142.87557152680012 C274.54896927838263 142.67966717843194 273.55980558505235 142.51014374671405 273.1522802496452 143.25105186781155 C272.86022774930245 143.78098449636627 273.0771275366574 144.48170803114044 273.81641632359936 145.38964568675829 C274.0467528228438 145.67220013404852 274.2917543621551 145.88693186681473 274.50925832719054 146.0552134814095 C274.3290236366047 146.16572494240586 274.16774314829775 146.3352483741237 274.1023421626679 146.60147959716477 C274.1023421626679 146.60147959716477 274.1023421626679 146.60147959716477 274.1023421626679 146.60147959716477 C273.9483767181806 147.23187625726604 274.47564407804873 147.86353526039318 275.66887502452494 148.48138546237135 C275.9651917210599 148.63583774991457 276.3641587048586 148.84179979068398 276.9231928283988 148.94100661068035 C277.18651942628856 148.98747212327885 277.4235817712838 148.99877676427877 277.62641570304856 149.00505769055377 C277.63069987205677 149.12560631804854 277.65818745992465 149.2562126379445 277.7296701679927 149.39057519806374 C277.9392399319162 149.7861452664991 278.3754562173485 149.97450634556645 279.03287143875593 149.92929804451802 C279.75626685745397 149.89036553826907 280.3519510981512 149.74846997180026 280.8773909453655 149.62414457817943 C281.3362214515886 149.51615267175907 281.73152841687545 149.42447885811214 282.04189598938876 149.44582579708623 C282.61742266564966 149.4935433897591 283.0610039269412 149.9669733392169 283.58153545465063 150.5810519065447 C283.58153545465063 150.5810519065447 284.8810667204941 152.1419801098366 284.8810667204941 152.1419801098366 C284.8810667204941 152.1419801098366 284.88108170010605 152.1419801098366 284.88108170010605 152.1419801098366 C284.88108170010605 152.1419801098366 284.8810916865141 152.1419801098366 284.8810916865141 152.1419801098366 Z" style="stroke-width: 0; stroke-linecap: butt; stroke-linejoin: miter; fill: rgb(22, 204, 119);" vector-effect="non-scaling-stroke"/></g><g><defs><path id="path-1685715701621124207" d="M13.914687980380966 204.88405114008754 C13.914687980380966 204.88405114008754 14.445016174284218 204.54247445912435 14.445016174284218 204.54247445912435 C14.445016174284218 204.54247445912435 14.5733215435577 203.9133350105734 14.5733215435577 203.9133350105734 C14.5733215435577 203.9133350105734 14.445016174284218 204.54247445912435 14.445016174284218 204.54247445912435 C14.445016174284218 204.54247445912435 15.063314635772304 204.61531062542178 15.063314635772304 204.61531062542178 C15.073096322354138 204.55628839174886 15.10669559188408 204.42065835712802 15.157396585019322 204.20843078451082 C15.434164888002686 203.04558194127873 16.27791150204633 199.50679313285838 16.98175852719269 193.93365643463963 C17.472989933992427 190.0432537787577 17.750976578745043 186.04360713638096 17.80840841083501 182.04393996810148 C17.865840242924975 178.03801239944968 17.68132138333077 175.0052948575096 17.533467620505526 172.56784389292636 C17.42166479036065 170.72939008854487 17.286019411247803 168.9788333316841 17.15283568169332 167.2734746129203 C16.798472988979658 162.71750416238706 16.464272853906326 158.41395613374618 16.71294439813727 153.64954000819762 C16.767924567076818 152.58589798496197 16.88341238175329 150.37195870809325 18.141999375023705 148.0161136018043 C18.872115646268607 146.64982227237897 19.877766899115674 145.43675167632526 21.131475532105114 144.4120370278631 C21.131475532105114 144.4120370278631 20.351881602698214 143.4049079466759 20.351881602698214 143.4049079466759 C18.968040087781407 144.53761450155844 17.855464365070432 145.88130681193527 17.04469287006018 147.39829418868035 C15.649237162703685 150.01030769413345 15.523373470172675 152.4226708739465 15.462890790455598 153.5817480825279 C15.209955050032264 158.43031014684962 15.547810210413349 162.77531023631565 15.905847901250679 167.37522151339562 C16.037823275443852 169.07428904293297 16.17345866814875 170.81730766196853 16.284652327409 172.64823359147624 C16.43128774846498 175.06310093143802 16.613964115793397 178.0694221623007 16.557141454588066 182.02387076658044 C16.500927964267362 185.97579981628414 16.226002153549786 189.9264819173892 15.741496592500797 193.76791490052378 C15.046212912167011 199.27073498702103 14.21467468183576 202.75678248804365 13.94157638377208 203.9020457640006 C13.79615930448534 204.51361503970378 13.765620868990448 204.6417018050237 13.914697966788921 204.88407166599038 C13.914697966788921 204.88407166599038 13.914697966788921 204.88405627156322 13.914697966788921 204.88405627156322 C13.914697966788921 204.88405627156322 13.914687980380966 204.88405114008754 13.914687980380966 204.88405114008754 Z" vector-effect="non-scaling-stroke"/></defs> <path d="M282.2917958617968 202.6242784796296 C282.2917958617968 202.6242784796296 282.8221240557 202.28270179866638 282.8221240557 202.28270179866638 C282.8221240557 202.28270179866638 282.95042942497344 201.65356235011546 282.95042942497344 201.65356235011546 C282.95042942497344 201.65356235011546 282.8221240557 202.28270179866638 282.8221240557 202.28270179866638 C282.8221240557 202.28270179866638 283.44042251718804 202.35553796496384 283.44042251718804 202.35553796496384 C283.4502042037699 202.29651573129092 283.4838034732999 202.1608856966701 283.5345044664351 201.94865812405288 C283.81127276941845 200.78580928082079 284.6550193834621 197.24702047240044 285.3588664086085 191.67388377418172 C285.85009781540816 187.78348111829973 286.12808446016084 183.78383447592302 286.1855162922508 179.78416730764354 C286.2429481243407 175.77823973899172 286.05842926474656 172.74552219705163 285.91057550192136 170.30807123246842 C285.7987726717764 168.46961742808696 285.6631272926636 166.71906067122615 285.5299435631091 165.01370195246238 C285.1755808703955 160.45773150192912 284.8413807353221 156.15418347328824 285.0900522795531 151.38976734773968 C285.14503244849266 150.326125324504 285.26052026316904 148.1121860476353 286.5191072564395 145.75634094134637 C287.2492235276844 144.39004961192103 288.2548747805315 143.17697901586735 289.5085834135209 142.15226436740517 C289.5085834135209 142.15226436740517 288.728989484114 141.14513528621796 288.728989484114 141.14513528621796 C287.3451479691972 142.2778418411005 286.23257224648626 143.62153415147736 285.421800751476 145.13852152822244 C284.02634504411947 147.75053503367553 283.9004813515885 150.16289821348857 283.8399986718714 151.32197542206995 C283.58706293144803 156.1705374863917 283.9249180918291 160.5155375758577 284.2829557826665 165.11544885293767 C284.41493115685967 166.81451638247506 284.55056654956456 168.5575350015106 284.66176020882483 170.3884609310183 C284.8083956298808 172.80332827098005 284.99107199720913 175.80964950184273 284.93424933600386 179.7640981061225 C284.87803584568314 183.71602715582617 284.60311003496554 187.66670925693126 284.11860447391655 191.5081422400658 C283.4233207935828 197.01096232656312 282.5917825632515 200.4970098275857 282.3186842651878 201.64227310354266 C282.17326718590107 202.25384237924584 282.14272875040626 202.3819291445658 282.2918058482047 202.6242990055324 C282.2918058482047 202.6242990055324 282.2918058482047 202.62428361110528 282.2918058482047 202.62428361110528 C282.2918058482047 202.62428361110528 282.2917958617968 202.6242784796296 282.2917958617968 202.6242784796296 Z" style="stroke-width: 0; stroke-linecap: butt; stroke-linejoin: miter; fill: rgb(22, 204, 119);" vector-effect="non-scaling-stroke"/></g><g><defs><path id="path-1685715701621124205" d="M12.46904658604244 146.45519566146913 C12.520366736470237 146.45519566146913 12.572301050986646 146.45394358139475 12.6248395431837 146.45016681526866 C13.690374291271047 146.3911445815957 14.677086321450913 145.73562934786995 15.558102209944074 144.50245362996506 C15.971115076516925 143.92227872268566 16.18251235309426 143.2604876941607 16.60408856447969 141.94066187733387 C16.669459590885676 141.73722452261612 16.987172166442274 140.7049768678044 17.180239391237116 139.28469215090675 C17.306717247856724 138.3566647678649 17.29082387961273 137.96863796873046 17.111807530796074 137.62580920769284 C16.913242788427674 137.2440479404062 16.59187019435935 136.9778269803165 16.23017747821431 136.79825611914893 C16.246055866846373 136.6751828056024 16.233238312249355 136.54835325183268 16.181294011325008 136.41900414348692 C15.96806922209379 135.88279058865714 15.401090911033569 135.95311746333005 15.094378363828056 135.98702112337847 C14.939194577571428 136.00711085080235 14.745518181891953 136.03348663597697 14.536557588853121 136.02217686350127 C14.207859964557356 136.00585877072794 14.03128029927921 135.90538447622993 13.763684511993088 135.75468842891004 C13.507682944330746 135.6102733078652 13.189376177501455 135.43069731522198 12.717088986572852 135.33149049522555 C11.785966296217156 135.13182477515832 11.005763195925708 135.40307458144866 10.748548279698092 135.4922237090436 C9.395255186684274 135.95560622905177 8.728073258306944 137.03683381956236 7.955809352331537 138.28883692186525 C7.801843907844159 138.53999186925583 7.2733582062067645 139.45419505672172 6.924498024270659 140.70746563352614 C6.672780625616603 141.61162652301797 6.70820740780043 142.01347751772843 6.783974284876852 142.31235005779212 C6.937939729364219 142.9264286251199 7.301459958163155 143.27804247258132 8.22463846099883 144.054121728229 C9.188751249999836 144.86660880407388 9.67263266055223 145.27348864498506 10.088097190275503 145.52087195772512 C11.055255833699636 146.09476593872958 11.662569246448493 146.45516487261506 12.469041592838465 146.45516487261506 C12.469041592838465 146.45516487261506 12.469041592838465 146.45519566146933 12.469041592838465 146.45519566146933 C12.469041592838465 146.45519566146933 12.46904658604244 146.45519566146913 12.46904658604244 146.45519566146913 Z" vector-effect="non-scaling-stroke"/></defs> <path d="M291.8033900543562 144.1954230010059 C291.85471020478406 144.1954230010059 291.90664451930047 144.19417092093153 291.95918301149754 144.1903941548054 C293.02471775958486 144.13137192113248 294.01142978976475 143.4758566874067 294.8924456782579 142.24268096950186 C295.3054585448308 141.6625060622224 295.51685582140806 141.00071503369747 295.93843203279346 139.68088921687064 C296.0038030591995 139.47745186215286 296.3215156347561 138.44520420734113 296.51458285955096 137.0249194904435 C296.6410607161705 136.0968921074017 296.62516734792655 135.70886530826726 296.44615099910993 135.3660365472296 C296.24758625674144 134.98427527994295 295.92621366267315 134.7180543198533 295.5645209465281 134.53848345868573 C295.5803993351602 134.41541014513916 295.56758178056316 134.28858059136945 295.5156374796388 134.1592314830237 C295.30241269040766 133.62301792819392 294.73543437934734 133.69334480286682 294.42872183214183 133.7272484629152 C294.2735380458853 133.74733819033912 294.07986165020577 133.77371397551372 293.870901057167 133.76240420303805 C293.54220343287113 133.74608611026474 293.365623767593 133.6456118157667 293.09802798030694 133.49491576844684 C292.8420264126446 133.350500647402 292.5237196458153 133.17092465475878 292.0514324548867 133.07171783476235 C291.12030976453093 132.87205211469507 290.34010666423956 133.14330192098544 290.0828917480119 133.2324510485804 C288.7295986549981 133.69583356858857 288.06241672662077 134.77706115909916 287.2901528206454 136.02906426140203 C287.136187376158 136.28021920879257 286.6077016745206 137.19442239625846 286.25884149258445 138.44769297306289 C286.00712409393043 139.35185386255478 286.0425508761142 139.75370485726523 286.1183177531907 140.0525773973289 C286.272283197678 140.66665596465668 286.63580342647697 141.0182698121181 287.5589819293126 141.79434906776578 C288.5230947183137 142.60683614361062 289.0069761288661 143.0137159845218 289.42244065858927 143.26109929726192 C290.3895993020135 143.83499327826632 290.9969127147623 144.19539221215183 291.8033850611523 144.19539221215183 C291.8033850611523 144.19539221215183 291.8033850611523 144.19542300100613 291.8033850611523 144.19542300100613 C291.8033850611523 144.19542300100613 291.8033900543562 144.1954230010059 291.8033900543562 144.1954230010059 Z" style="stroke-width: 0; stroke-linecap: butt; stroke-linejoin: miter; fill: rgb(22, 204, 119);" vector-effect="non-scaling-stroke"/></g><g><defs><path id="path-1685715701620124203" d="M211.5062290308785 69.24158928630678 C211.5062290308785 69.24158928630678 227.49643574915714 71.20984564688078 224.79923699775728 58.27055553917375 C222.10203824635727 45.3312654314667 206.80899479960868 21.43165715454707 206.80899479960868 21.43165715454707 C206.80899479960868 21.43165715454707 198.130634595478 26.412682844131776 198.130634595478 26.412682844131776 C198.130634595478 26.412682844131776 208.09408535449472 50.51635708302828 208.09408535449472 50.51635708302828 C208.09408535449472 50.51635708302828 203.80494644790892 53.97949922770755 203.80494644790892 53.97949922770755 C203.80494644790892 53.97949922770755 211.50623413321821 69.24158928630678 211.50623413321821 69.24158928630678 C211.50623413321821 69.24158928630678 211.5062290308785 69.24158928630678 211.5062290308785 69.24158928630678 Z" vector-effect="non-scaling-stroke"/></defs> <path d="M91.400471382496 66.78612559238513 C91.400471382496 66.78612559238513 107.39067810077461 68.75438195295919 104.6934793493748 55.81509184525214 C101.99628059797476 42.87580173754509 86.70323715122618 18.97619346062544 86.70323715122618 18.97619346062544 C86.70323715122618 18.97619346062544 78.02487694709544 23.957219150210165 78.02487694709544 23.957219150210165 C78.02487694709544 23.957219150210165 87.98832770611216 48.060893389106695 87.98832770611216 48.060893389106695 C87.98832770611216 48.060893389106695 83.69918879952638 51.524035533785934 83.69918879952638 51.524035533785934 C83.69918879952638 51.524035533785934 91.40047648483574 66.78612559238513 91.40047648483574 66.78612559238513 C91.40047648483574 66.78612559238513 91.400471382496 66.78612559238513 91.400471382496 66.78612559238513 Z" style="stroke-width: 0; stroke-linecap: butt; stroke-linejoin: miter; fill: rgb(160, 97, 106);" vector-effect="non-scaling-stroke"/></g><g><defs><path id="path-1685715701620124201" d="M205.4160128742584 53.48902654710208 C205.4160128742584 53.48902654710208 207.66924175135267 72.45546369392211 207.66924175135267 72.45546369392211 C207.66924175135267 72.45546369392211 264.13063459547857 72.17248784015365 264.13063459547857 72.17248784015365 C264.13063459547857 72.17248784015365 252.79087875681546 52.00239677113136 252.79087875681546 52.00239677113136 C252.79087875681546 52.00239677113136 205.4160128742584 53.48902654710208 205.4160128742584 53.48902654710208 Z" vector-effect="non-scaling-stroke"/></defs> <path d="M39 51.033562853179944 C39 51.033562853179944 41.253228877094216 70 41.253228877094216 70 C41.253228877094216 70 97.71462172122017 69.71702414623155 97.71462172122017 69.71702414623155 C97.71462172122017 69.71702414623155 86.37486588255706 49.546933077209246 86.37486588255706 49.546933077209246 C86.37486588255706 49.546933077209246 39 51.033562853179944 39 51.033562853179944 Z" style="stroke-width: 0; stroke-linecap: butt; stroke-linejoin: miter; fill: rgb(213, 0, 37);" vector-effect="non-scaling-stroke"/></g><g><defs><path id="path-1685715701620124199" d="M231.19654276972935 27.25092040899401 C234.30984849813197 24.969420617438132 234.03262289481387 19.116201789113827 230.57734205406598 14.17739024420244 C227.1220612133183 9.238578699291072 221.79716969681988 7.084401896843368 218.68386396841734 9.365901688399243 C215.57055824001466 11.647401479955118 215.84778384333276 17.50062030827944 219.30306468408068 22.439431853190815 C222.7583455248285 27.378243398102192 228.08323704132658 29.532420200549883 231.19654276972935 27.25092040899401 Z" vector-effect="non-scaling-stroke"/></defs> <path d="M84.44677062706171 24.795456715072476 C87.56007635546439 22.51395692351656 87.28285075214626 16.660738095192244 83.82756991139831 11.721926550280898 C80.37228907065071 6.7831150053694955 75.04739755415221 4.628938202921802 71.93409182574976 6.910437994477661 C68.82078609734708 9.191937786033577 69.09801170066521 15.045156614357893 72.55329254141304 19.98396815926924 C76.00857338216088 24.92277970418064 81.33346489865903 27.076956506628335 84.44677062706171 24.795456715072476 Z" style="stroke-width: 0; stroke-linecap: butt; stroke-linejoin: miter; fill: rgb(160, 97, 106);" vector-effect="non-scaling-stroke"/></g><g><defs><path id="path-1685715701628124250" d="M259.80293797568436 203.61636869133227 C259.80293797568436 203.61636869133227 263.28430056759163 203.61636869133227 263.28430056759163 203.61636869133227 C263.28430056759163 203.61636869133227 263.28430056759163 123.08230520122792 263.28430056759163 123.08230520122792 C263.28430056759163 123.08230520122792 259.80293797568436 123.08230520122792 259.80293797568436 123.08230520122792 C259.80293797568436 123.08230520122792 259.80293797568436 203.61636869133227 259.80293797568436 203.61636869133227 Z" vector-effect="non-scaling-stroke"/></defs> <path d="M39.48222293242986 203.0000000000001 C39.48222293242986 203.0000000000001 42.96358552433708 203.0000000000001 42.96358552433708 203.0000000000001 C42.96358552433708 203.0000000000001 42.96358552433708 122.46593650989576 42.96358552433708 122.46593650989576 C42.96358552433708 122.46593650989576 39.48222293242986 122.46593650989576 39.48222293242986 122.46593650989576 C39.48222293242986 122.46593650989576 39.48222293242986 203.0000000000001 39.48222293242986 203.0000000000001 Z" style="stroke-width: 0; stroke-linecap: butt; stroke-linejoin: miter; fill: rgb(63, 61, 86);" vector-effect="non-scaling-stroke"/></g><g><defs><path id="path-1685715701627124248" d="M243.0923975345351 203.61636358209063 C243.0923975345351 203.61636358209063 246.57376012644255 203.61636358209063 246.57376012644255 203.61636358209063 C246.57376012644255 203.61636358209063 246.57376012644252 123.0823000919864 246.57376012644252 123.0823000919864 C246.57376012644252 123.0823000919864 243.0923975345351 123.0823000919864 243.0923975345351 123.0823000919864 C243.0923975345351 123.0823000919864 243.0923975345351 203.61636358209063 243.0923975345351 203.61636358209063 Z" vector-effect="non-scaling-stroke"/></defs> <path d="M56.19276337358451 202.99999489075844 C56.19276337358451 202.99999489075844 59.67412596549195 202.99999489075844 59.67412596549195 202.99999489075844 C59.67412596549195 202.99999489075844 59.67412596549195 122.4659314006542 59.67412596549195 122.4659314006542 C59.67412596549195 122.4659314006542 56.19276337358451 122.4659314006542 56.19276337358451 122.4659314006542 C56.19276337358451 122.4659314006542 56.19276337358451 202.99999489075844 56.19276337358451 202.99999489075844 Z" style="stroke-width: 0; stroke-linecap: butt; stroke-linejoin: miter; fill: rgb(63, 61, 86);" vector-effect="non-scaling-stroke"/></g><g><defs><path id="path-1685715701627124246" d="M149.44373100205877 203.61636358209057 C149.44373100205877 203.61636358209057 152.92509359396573 203.61636358209057 152.92509359396573 203.61636358209057 C152.92509359396573 203.61636358209057 152.92509359396564 72.4013821480177 152.92509359396564 72.4013821480177 C152.92509359396564 72.4013821480177 149.44373100205874 72.4013821480177 149.44373100205874 72.4013821480177 C149.44373100205874 72.4013821480177 149.44373100205877 203.61636358209057 149.44373100205877 203.61636358209057 Z" vector-effect="non-scaling-stroke"/></defs> <path d="M149.84142990603618 202.99999489075833 C149.84142990603618 202.99999489075833 153.32279249794317 202.99999489075833 153.32279249794317 202.99999489075833 C153.32279249794317 202.99999489075833 153.32279249794306 71.78501345668548 153.32279249794306 71.78501345668548 C153.32279249794306 71.78501345668548 149.84142990603618 71.78501345668548 149.84142990603618 71.78501345668548 C149.84142990603618 71.78501345668548 149.84142990603618 202.99999489075833 149.84142990603618 202.99999489075833 Z" style="stroke-width: 0; stroke-linecap: butt; stroke-linejoin: miter; fill: rgb(115, 115, 115);" vector-effect="non-scaling-stroke"/></g><g><defs><path id="path-1685715701627124244" d="M205.49367641786264 203.61636358209063 C205.49367641786264 203.61636358209063 208.97503900976986 203.61636358209063 208.97503900976986 203.61636358209063 C208.97503900976986 203.61636358209063 208.97503900976974 123.08230009198637 208.97503900976974 123.08230009198637 C208.97503900976974 123.08230009198637 205.49367641786264 123.08230009198637 205.49367641786264 123.08230009198637 C205.49367641786264 123.08230009198637 205.49367641786264 203.61636358209063 205.49367641786264 203.61636358209063 Z" vector-effect="non-scaling-stroke"/></defs> <path d="M93.79148449024115 202.99999489075844 C93.79148449024115 202.99999489075844 97.27284708214836 202.99999489075844 97.27284708214836 202.99999489075844 C97.27284708214836 202.99999489075844 97.27284708214825 122.4659314006542 97.27284708214825 122.4659314006542 C97.27284708214825 122.4659314006542 93.79148449024115 122.4659314006542 93.79148449024115 122.4659314006542 C93.79148449024115 122.4659314006542 93.79148449024115 202.99999489075844 93.79148449024115 202.99999489075844 Z" style="stroke-width: 0; stroke-linecap: butt; stroke-linejoin: miter; fill: rgb(63, 61, 86);" vector-effect="non-scaling-stroke"/></g><g><defs><path id="path-1685715701627124242" d="M192.1711228402071 203.61636358209063 C192.1711228402071 203.61636358209063 195.65248543211422 203.61636358209063 195.65248543211422 203.61636358209063 C195.65248543211422 203.61636358209063 195.6524854321142 123.08230009198637 195.6524854321142 123.08230009198637 C195.6524854321142 123.08230009198637 192.1711228402071 123.08230009198637 192.1711228402071 123.08230009198637 C192.1711228402071 123.08230009198637 192.1711228402071 203.61636358209063 192.1711228402071 203.61636358209063 Z" vector-effect="non-scaling-stroke"/></defs> <path d="M107.11403806789099 202.99999489075844 C107.11403806789099 202.99999489075844 110.59540065979809 202.99999489075844 110.59540065979809 202.99999489075844 C110.59540065979809 202.99999489075844 110.59540065979809 122.4659314006542 110.59540065979809 122.4659314006542 C110.59540065979809 122.4659314006542 107.11403806789099 122.4659314006542 107.11403806789099 122.4659314006542 C107.11403806789099 122.4659314006542 107.11403806789099 202.99999489075844 107.11403806789099 202.99999489075844 Z" style="stroke-width: 0; stroke-linecap: butt; stroke-linejoin: miter; fill: rgb(63, 61, 86);" vector-effect="non-scaling-stroke"/></g><g><defs><path id="path-1685715701626124240" d="M176.54460271526003 121.34665494678801 C176.54460271526003 121.34665494678801 243.77328762757952 121.34665494678801 243.77328762757952 121.34665494678801 C243.77328762757952 121.34665494678801 256.6697142049888 139.5864789482635 256.6697142049888 139.5864789482635 C256.6697142049888 139.5864789482635 189.7737805645074 143.56295061371824 189.7737805645074 143.56295061371824 C189.7737805645074 143.56295061371824 176.54460271526003 121.34665494678801 176.54460271526003 121.34665494678801 Z" vector-effect="non-scaling-stroke"/></defs> <path d="M46.096809295023945 120.73028625545533 C46.096809295023945 120.73028625545533 113.32549420734347 120.73028625545533 113.32549420734347 120.73028625545533 C113.32549420734347 120.73028625545533 126.22192078475268 138.9701102569308 126.22192078475268 138.9701102569308 C126.22192078475268 138.9701102569308 59.32598714427138 142.94658192238558 59.32598714427138 142.94658192238558 C59.32598714427138 142.94658192238558 46.096809295023945 120.73028625545533 46.096809295023945 120.73028625545533 Z" style="stroke-width: 0; stroke-linecap: butt; stroke-linejoin: miter; fill: rgb(63, 61, 86);" vector-effect="non-scaling-stroke"/></g><g><defs><path id="path-1685715701618124185" d="M99.16042457943335 55.958645670447595 C99.16042457943335 55.958645670447595 98.8361848121656 43.40030694920921 98.8361848121656 43.40030694920921 C98.8361848121656 43.40030694920921 141.91584376585794 46.35475934683521 141.91584376585794 46.35475934683521 C141.91584376585794 46.35475934683521 142.13617817707865 54.86453842439136 142.13617817707865 54.86453842439136 C142.13617817707865 54.86453842439136 99.16042457943335 55.958645670447595 99.16042457943335 55.958645670447595 Z" vector-effect="non-scaling-stroke"/></defs> <path d="M169.32423976726773 58.21497692337533 C169.32423976726773 58.21497692337533 169 45.656638202136946 169 45.656638202136946 C169 45.656638202136946 212.0796589536924 48.611090599762974 212.0796589536924 48.611090599762974 C212.0796589536924 48.611090599762974 212.299993364913 57.12086967731909 212.299993364913 57.12086967731909 C212.299993364913 57.12086967731909 169.32423976726773 58.21497692337533 169.32423976726773 58.21497692337533 Z" style="stroke-width: 0; stroke-linecap: butt; stroke-linejoin: miter; fill: rgb(160, 97, 106);" vector-effect="non-scaling-stroke"/></g><g><defs><path id="path-1685715701617124183" d="M87.13617817707765 44.85431763932495 C87.13617817707765 44.85431763932495 89.19654429764813 49.27411684153102 89.19654429764813 49.27411684153102 C89.19654429764813 49.27411684153102 92.15565720176572 49.358334907137895 92.15565720176572 49.358334907137895 C92.15565720176572 49.358334907137895 88.69103731439354 50.304315954055895 87.72855676226733 55.917700808577 C87.72855676226733 55.917700808577 90.57169216074537 56.67760368392802 90.57169216074537 56.67760368392802 C90.57169216074537 56.67760368392802 93.30213602850675 58.94894968210947 98.40634315493196 58.728615780827255 C98.40634315493196 58.728615780827255 112.09163985720114 57.70791436283398 112.09163985720114 57.70791436283398 C112.09163985720114 57.70791436283398 112.14425897881414 53.45412108501826 112.14425897881414 53.45412108501826 C112.14425897881414 53.45412108501826 102.68566720894916 52.47954023883646 102.68566720894916 52.47954023883646 C102.68566720894916 52.47954023883646 100.5781223225984 51.24326831896347 111.01129399596134 46.160575635144 C111.01129399596134 46.160575635144 114.46742692823462 44.27615154810178 111.35907418291684 34.9707829053738 C110.93185392009363 33.69181986723069 109.64134711304006 32.77322109080867 108.14499900270386 32.744339950235954 C107.31921827158357 32.728400509872856 106.54539293866475 32.992904996653074 106.23649497484499 33.90745827908154 C105.4502112270694 36.235402387475 106.24580342367454 38.55614318821809 104.08495937123165 40.00929530227084 C101.92411531878874 41.46244741632361 87.13618905778934 44.85432249003715 87.13618905778934 44.85432249003715 C87.13618905778934 44.85432249003715 87.13617817707765 44.85431763932495 87.13617817707765 44.85431763932495 Z" vector-effect="non-scaling-stroke"/></defs> <path d="M198.48035251571298 47.11064889225298 C198.48035251571298 47.11064889225298 200.54071863628337 51.53044809445902 200.54071863628337 51.53044809445902 C200.54071863628337 51.53044809445902 203.49983154040103 51.614666160065894 203.49983154040103 51.614666160065894 C203.49983154040103 51.614666160065894 200.0352116530288 52.5606472069839 199.07273110090262 58.174032061505045 C199.07273110090262 58.174032061505045 201.91586649938063 58.93393493685602 201.91586649938063 58.93393493685602 C201.91586649938063 58.93393493685602 204.64631036714206 61.20528093503748 209.75051749356726 60.98494703375525 C209.75051749356726 60.98494703375525 223.43581419583643 59.964245615762024 223.43581419583643 59.964245615762024 C223.43581419583643 59.964245615762024 223.48843331744945 55.710452337946265 223.48843331744945 55.710452337946265 C223.48843331744945 55.710452337946265 214.0298415475845 54.7358714917645 214.0298415475845 54.7358714917645 C214.0298415475845 54.7358714917645 211.92229666123376 53.49959957189151 222.3554683345966 48.41690688807205 C222.3554683345966 48.41690688807205 225.81160126686996 46.5324828010298 222.70324852155215 37.227114158301845 C222.27602825872896 35.94815112015874 220.98552145167537 35.02955234373667 219.4891733413392 35.00067120316396 C218.6633926102188 34.98473176280089 217.8895672773001 35.24923624958109 217.58066931348026 36.16378953200956 C216.79438556570472 38.49173364040303 217.5899777623099 40.812474441146094 215.42913370986696 42.26562655519888 C213.26828965742402 43.718778669251606 198.48036339642465 47.110653742965155 198.48036339642465 47.110653742965155 C198.48036339642465 47.110653742965155 198.48035251571298 47.11064889225298 198.48035251571298 47.11064889225298 Z" style="stroke-width: 0; stroke-linecap: butt; stroke-linejoin: miter; fill: rgb(47, 46, 65);" vector-effect="non-scaling-stroke"/></g><g><defs><path id="path-1685715701619124196" d="M117.74803939396351 108.35635322409655 C117.74803939396351 108.35635322409655 132.0312657339314 131.84816686968975 164.35111638707045 127.61448184399259 C172.04230599301164 126.60698807727402 178.80904934157658 122.18506243149733 182.66412207902027 115.67089861001696 C190.11533122054368 103.08011059719612 201.42990955952678 81.0340987600592 197.76174503566162 68.5506912126781 C197.76174503566162 68.5506912126781 252.42429708852316 58.462058630899286 252.42429708852316 58.462058630899286 C252.42429708852316 58.462058630899286 256.73115833953744 45.62462060589448 256.73115833953744 45.62462060589448 C256.73115833953744 45.62462060589448 197.57241114001158 38.19330193382034 197.57241114001158 38.19330193382034 C192.3396189469051 37.53597636537917 187.2137397366504 39.99670834489754 184.59165060609752 44.42484700286888 C184.59165060609752 44.42484700286888 155.77393594900641 93.09177089493612 155.77393594900641 93.09177089493612 C155.77393594900641 93.09177089493612 147.18304308837065 93.9988706753467 147.18304308837065 93.9988706753467 C147.18304308837065 93.9988706753467 117.74803939396364 108.35634311341768 117.74803939396364 108.35634311341768 C117.74803939396364 108.35634311341768 117.74803939396351 108.35635322409655 117.74803939396351 108.35635322409655 Z" vector-effect="non-scaling-stroke"/></defs> <path d="M51 109.23139320931739 C51 109.23139320931739 65.28322633996788 132.7232068549106 97.60307699310692 128.48952182921346 C105.29426659904811 127.48202806249486 112.06100994761312 123.06010241671817 115.91608268505684 116.54593859523777 C123.36729182658019 103.95515058241699 134.68187016556328 81.90913874528002 131.01370564169815 69.42573119789893 C131.01370564169815 69.42573119789893 185.6762576945597 59.3370986161201 185.6762576945597 59.3370986161201 C185.6762576945597 59.3370986161201 189.983118945574 46.499660591115344 189.983118945574 46.499660591115344 C189.983118945574 46.499660591115344 130.8243717460481 39.06834191904119 130.8243717460481 39.06834191904119 C125.59157955294154 38.41101635059999 120.46570034268689 40.87174833011841 117.84361121213396 45.299886988089725 C117.84361121213396 45.299886988089725 89.02589655504289 93.96681088015697 89.02589655504289 93.96681088015697 C89.02589655504289 93.96681088015697 80.43500369440721 94.8739106605675 80.43500369440721 94.8739106605675 C80.43500369440721 94.8739106605675 51.000000000000114 109.2313830986385 51.000000000000114 109.2313830986385 C51.000000000000114 109.2313830986385 51 109.23139320931739 51 109.23139320931739 Z" style="stroke-width: 0; stroke-linecap: butt; stroke-linejoin: miter; fill: rgb(47, 46, 65);" vector-effect="non-scaling-stroke"/></g><g><defs><path id="path-1685715701617124181" d="M97.95162252428179 60.577197185327606 C97.95162252428179 60.577197185327606 98.7493828405977 48.14353521972578 98.7493828405977 48.14353521972578 C98.7493828405977 48.14353521972578 140.77920370033172 54.12701712203417 140.77920370033172 54.12701712203417 C140.77920370033172 54.12701712203417 140.23924208728343 62.552361218559454 140.23924208728343 62.552361218559454 C140.23924208728343 62.552361218559454 97.95162252428179 60.577197185327606 97.95162252428179 60.577197185327606 Z" vector-effect="non-scaling-stroke"/></defs> <path d="M169 63.38753645083273 C169 63.38753645083273 169.79776031631593 50.953874485230926 169.79776031631593 50.953874485230926 C169.79776031631593 50.953874485230926 211.82758117605 56.937356387539296 211.82758117605 56.937356387539296 C211.82758117605 56.937356387539296 211.2876195630016 65.36270048406459 211.2876195630016 65.36270048406459 C211.2876195630016 65.36270048406459 169 63.38753645083273 169 63.38753645083273 Z" style="stroke-width: 0; stroke-linecap: butt; stroke-linejoin: miter; fill: rgb(160, 97, 106);" vector-effect="non-scaling-stroke"/></g><g><defs><path id="path-1685715701617124179" d="M86.18086749721532 51.67705616951544 C86.18086749721532 51.67705616951544 87.8107884390211 56.19139253679402 87.8107884390211 56.19139253679402 C87.8107884390211 56.19139253679402 90.70833934067318 56.48506871000308 90.70833934067318 56.48506871000308 C90.70833934067318 56.48506871000308 87.22296645813132 57.173520876501435 85.77920370033213 62.6524222430377 C85.77920370033213 62.6524222430377 88.50284550002934 63.605584536872044 88.50284550002934 63.605584536872044 C88.50284550002934 63.605584536872044 90.98153780851491 66.04439767362862 96.01204183654328 66.18966073449454 C96.01204183654328 66.18966073449454 109.53795405535307 66.15425511773925 109.53795405535307 66.15425511773925 C109.53795405535307 66.15425511773925 109.96765249672197 61.95424579549088 109.96765249672197 61.95424579549088 C109.96765249672197 61.95424579549088 100.7685275762777 60.31844570498393 100.7685275762777 60.31844570498393 C100.7685275762777 60.31844570498393 98.80936566917686 58.946831534773274 109.50357517939352 54.66592600504847 C109.50357517939352 54.66592600504847 113.06401789550662 53.04946867338288 110.83944849401243 43.63249799032986 C110.53369297343839 42.33819714461786 109.34841478176882 41.33862569543318 107.8819756830936 41.20366402428335 C107.0727003723205 41.129183341494716 106.28950928351932 41.335542973300605 105.90498134157978 42.21736501734565 C104.92618002120456 44.4620051336598 105.50098668262646 46.81202529267202 103.25048844996512 48.09440884439873 C100.99999021730385 49.37679239612546 86.18087285551891 51.677056169515446 86.18087285551891 51.677056169515446 C86.18087285551891 51.677056169515446 86.18086749721532 51.67705616951544 86.18086749721532 51.67705616951544 Z" vector-effect="non-scaling-stroke"/></defs> <path d="M198.61014649604738 54.48739543502086 C198.61014649604738 54.48739543502086 200.2400674378531 59.001731802299446 200.2400674378531 59.001731802299446 C200.2400674378531 59.001731802299446 203.13761833950525 59.29540797550851 203.13761833950525 59.29540797550851 C203.13761833950525 59.29540797550851 199.65224545696333 59.98386014200685 198.20848269916416 65.46276150854311 C198.20848269916416 65.46276150854311 200.9321244988614 66.4159238023775 200.9321244988614 66.4159238023775 C200.9321244988614 66.4159238023775 203.41081680734692 68.85473693913406 208.44132083537534 69 C208.44132083537534 69 221.96723305418516 68.96459438324467 221.96723305418516 68.96459438324467 C221.96723305418516 68.96459438324467 222.39693149555399 64.7645850609963 222.39693149555399 64.7645850609963 C222.39693149555399 64.7645850609963 213.19780657510978 63.12878497048939 213.19780657510978 63.12878497048939 C213.19780657510978 63.12878497048939 211.23864466800887 61.757170800278686 221.93285417822563 57.47626527055388 C221.93285417822563 57.47626527055388 225.49329689433864 55.85980793888831 223.2687274928445 46.442837255835286 C222.96297197227045 45.14853641012331 221.77769378060088 44.1489649609386 220.31125468192567 44.014003289788775 C219.50197937115252 43.93952260700013 218.7187882823514 44.14588223880605 218.3342603404118 45.02770428285106 C217.35545902003662 47.27234439916526 217.93026568145854 49.62236455817742 215.67976744879718 50.904748109904176 C213.42926921613594 52.18713166163087 198.610151854351 54.48739543502086 198.610151854351 54.48739543502086 C198.610151854351 54.48739543502086 198.61014649604738 54.48739543502086 198.61014649604738 54.48739543502086 Z" style="stroke-width: 0; stroke-linecap: butt; stroke-linejoin: miter; fill: rgb(47, 46, 65);" vector-effect="non-scaling-stroke"/></g><g><defs><path id="path-1685715701619124193" d="M118.56412825737875 105.48896657103225 C118.56412825737875 105.48896657103225 130.92303885162377 130.32394418020175 163.69295876411428 128.59700014228218 C171.49124868564934 128.18603895681704 178.64819927028557 124.25613432076732 183.06000119003065 117.98521389287528 C191.58728259510698 105.86456678956502 204.78090064187018 84.50529376478504 202.1469123420301 71.61708640241805 C202.1469123420301 71.61708640241805 257.815799071254 65.7409311409733 257.815799071254 65.7409311409733 C257.815799071254 65.7409311409733 263.21007513927 53.123648778146794 263.21007513927 53.123648778146794 C263.21007513927 53.123648778146794 204.49834963636505 40.963084937700145 204.49834963636505 40.963084937700145 C199.30509540018784 39.88744199830367 193.9580514407177 41.96721252257852 190.95751062725697 46.22988801839975 C190.95751062725697 46.22988801839975 157.980419608522 93.07827047101033 157.980419608522 93.07827047101033 C157.980419608522 93.07827047101033 149.2881651119864 93.31702866160427 149.2881651119864 93.31702866160427 C149.2881651119864 93.31702866160427 118.56413351766483 105.48896145218929 118.56413351766483 105.48896145218929 C118.56413351766483 105.48896145218929 118.56412825737875 105.48896657103225 118.56412825737875 105.48896657103225 Z" vector-effect="non-scaling-stroke"/></defs> <path d="M45 103.8059028694563 C45 103.8059028694563 57.358910594245 128.64088047862577 90.12883050673554 126.91393644070621 C97.92712042827054 126.50297525524104 105.08407101290675 122.57307061919136 109.49587293265188 116.30215019129929 C118.02315433772822 104.18150308798903 131.21677238449138 82.82223006320908 128.58278408465128 69.93402270084209 C128.58278408465128 69.93402270084209 184.2516708138752 64.05786743939734 184.2516708138752 64.05786743939734 C184.2516708138752 64.05786743939734 189.64594688189118 51.44058507657081 189.64594688189118 51.44058507657081 C189.64594688189118 51.44058507657081 130.9342213789862 39.280021236124185 130.9342213789862 39.280021236124185 C125.74096714280904 38.20437829672767 120.39392318333887 40.28414882100253 117.39338236987817 44.546824316823745 C117.39338236987817 44.546824316823745 84.41629135114317 91.39520676943437 84.41629135114317 91.39520676943437 C84.41629135114317 91.39520676943437 75.72403685460756 91.63396496002827 75.72403685460756 91.63396496002827 C75.72403685460756 91.63396496002827 45.000005260286 103.80589775061333 45.000005260286 103.80589775061333 C45.000005260286 103.80589775061333 45 103.8059028694563 45 103.8059028694563 Z" style="stroke-width: 0; stroke-linecap: butt; stroke-linejoin: miter; fill: rgb(47, 46, 65);" vector-effect="non-scaling-stroke"/></g><g><defs><path id="path-1685715701626124236" d="M231.5326278816199 0.6163686913324409 C231.5326278816199 0.6163686913324409 234.31771795514555 2.6991459311157437 234.31771795514555 2.6991459311157437 C234.31771795514555 2.6991459311157437 219.6959950691351 22.832664358262637 219.6959950691351 22.832664358262637 C219.6959950691351 22.832664358262637 216.91090499560934 22.138405278334876 216.91090499560934 22.138405278334876 C216.91090499560934 22.138405278334876 231.5326278816199 0.6163686913324409 231.5326278816199 0.6163686913324409 Z" vector-effect="non-scaling-stroke"/></defs> <path d="M83.07052843088115 0 C83.07052843088115 0 85.85561850440683 2.0827772397832973 85.85561850440683 2.0827772397832973 C85.85561850440683 2.0827772397832973 71.23389561839645 22.216295666930193 71.23389561839645 22.216295666930193 C71.23389561839645 22.216295666930193 68.44880554487065 21.52203658700239 68.44880554487065 21.52203658700239 C68.44880554487065 21.52203658700239 83.07052843088115 0 83.07052843088115 0 Z" style="stroke-width: 0; stroke-linecap: butt; stroke-linejoin: miter; fill: rgb(63, 61, 86);" vector-effect="non-scaling-stroke"/></g><g><defs><path id="path-1685715701625124234" d="M242.74425358924174 45.32527803083485 C242.74425358924174 45.32527803083485 226.7299856664686 44.63101895090706 226.7299856664686 44.63101895090706 C226.7299856664686 44.63101895090706 219.76726048265425 75.87268265689823 219.76726048265425 75.87268265689823 C219.76726048265425 75.87268265689823 234.38898336866455 130.71915508043344 251.79580145225955 128.6363778406501 C251.79580145225955 128.6363778406501 262.5880280492017 120.65239586686008 262.5880280492017 117.87535954714896 C262.5880280492017 115.09832322743793 277.20975093521184 108.15573242816025 277.20975093521184 108.15573242816025 C277.20975093521184 108.15573242816025 280.69111352711906 96.3533280693882 280.69111352711906 96.3533280693882 C280.69111352711906 96.3533280693882 270.2470257513974 80.38536923104952 270.2470257513974 80.38536923104952 C270.2470257513974 80.38536923104952 266.06939064110855 67.88870579234973 252.14394027347996 60.946114993072 C252.14394027347996 60.946114993072 242.74425871330075 45.32528314007643 242.74425871330075 45.32528314007643 C242.74425871330075 45.32528314007643 242.74425358924174 45.32527803083485 242.74425358924174 45.32527803083485 Z" vector-effect="non-scaling-stroke"/></defs> <path d="M45.05240307948145 44.70890933950267 C45.05240307948145 44.70890933950267 29.038135156708336 44.014650259574864 29.038135156708336 44.014650259574864 C29.038135156708336 44.014650259574864 22.075409972894022 75.25631396556605 22.075409972894022 75.25631396556605 C22.075409972894022 75.25631396556605 36.6971328589043 130.10278638910125 54.103950942499296 128.02000914931796 C54.103950942499296 128.02000914931796 64.8961775394414 120.03602717552792 64.8961775394414 117.25899085581676 C64.8961775394414 114.48195453610572 79.51790042545156 107.53936373682808 79.51790042545156 107.53936373682808 C79.51790042545156 107.53936373682808 82.99926301735877 95.73695937805599 82.99926301735877 95.73695937805599 C82.99926301735877 95.73695937805599 72.55517524163713 79.76900053971735 72.55517524163713 79.76900053971735 C72.55517524163713 79.76900053971735 68.37754013134827 67.27233710101757 54.45208976371964 60.32974630173982 C54.45208976371964 60.32974630173982 45.052408203540494 44.708914448744224 45.052408203540494 44.708914448744224 C45.052408203540494 44.708914448744224 45.05240307948145 44.70890933950267 45.05240307948145 44.70890933950267 Z" style="stroke-width: 0; stroke-linecap: butt; stroke-linejoin: miter; fill: rgb(213, 0, 37);" vector-effect="non-scaling-stroke"/></g><g><defs><path id="path-1685715701625124232" d="M23.766523500012493 69.62434582830666 C23.766523500012493 69.62434582830666 166.1542765672827 69.62434582830666 166.1542765672827 69.62434582830666 C166.1542765672827 69.62434582830666 166.1542765672827 73.09564122794548 166.1542765672827 73.09564122794548 C166.1542765672827 73.09564122794548 96.52701448102056 73.09564122794548 96.52701448102056 73.09564122794548 C96.52701448102056 73.09564122794548 96.52701448102056 203.61636869133227 96.52701448102056 203.61636869133227 C96.52701448102056 203.61636869133227 93.04565188911339 203.61636869133227 93.04565188911339 203.61636869133227 C93.04565188911339 203.61636869133227 93.04565188911339 73.09564122794548 93.04565188911339 73.09564122794548 C93.04565188911339 73.09564122794548 23.766523500012493 73.09564122794548 23.766523500012493 73.09564122794548 C23.766523500012493 73.09564122794548 23.766523500012493 69.62434582830666 23.766523500012493 69.62434582830666 Z" vector-effect="non-scaling-stroke"/></defs> <path d="M136.6122469327297 69.00797713697449 C136.6122469327297 69.00797713697449 279 69.00797713697449 279 69.00797713697449 C279 69.00797713697449 279 72.47927253661328 279 72.47927253661328 C279 72.47927253661328 209.37273791373786 72.47927253661328 209.37273791373786 72.47927253661328 C209.37273791373786 72.47927253661328 209.37273791373786 203.0000000000001 209.37273791373786 203.0000000000001 C209.37273791373786 203.0000000000001 205.89137532183065 203.0000000000001 205.89137532183065 203.0000000000001 C205.89137532183065 203.0000000000001 205.89137532183065 72.47927253661328 205.89137532183065 72.47927253661328 C205.89137532183065 72.47927253661328 136.6122469327297 72.47927253661328 136.6122469327297 72.47927253661328 C136.6122469327297 72.47927253661328 136.6122469327297 69.00797713697449 136.6122469327297 69.00797713697449 Z" style="stroke-width: 0; stroke-linecap: butt; stroke-linejoin: miter; fill: rgb(115, 115, 115);" vector-effect="non-scaling-stroke"/></g><g><defs><path id="path-1685715701625124230" d="M284.8687537614641 23.803241443832366 C284.8687537614641 13.45066648238946 276.45199449313077 5.058246285782676 266.06939576516544 5.058246285782676 C255.68679703719985 5.058246285782676 247.2700377688667 13.45066648238946 247.2700377688667 23.803241443832366 C247.2700377688667 34.1558164052753 255.68679703719985 42.54823660188208 266.06939576516544 42.54823660188208 C276.45199449313077 42.54823660188208 284.8687537614641 34.1558164052753 284.8687537614641 23.803241443832366 Z" vector-effect="non-scaling-stroke"/></defs> <path d="M55.49648573114382 23.186872752499823 C55.49648573114382 12.83429779105694 47.07972646281041 4.441877594450148 36.697127734845026 4.441877594450148 C26.314529006879525 4.441877594450148 17.897769738546344 12.83429779105694 17.897769738546344 23.186872752499823 C17.897769738546344 33.539447713942764 26.314529006879525 41.931867910549556 36.697127734845026 41.931867910549556 C47.07972646281041 41.931867910549556 55.49648573114382 33.539447713942764 55.49648573114382 23.186872752499823 Z" style="stroke-width: 0; stroke-linecap: butt; stroke-linejoin: miter; fill: rgb(160, 97, 106);" vector-effect="non-scaling-stroke"/></g><g><defs><path id="path-1685715701625124228" d="M209.07372838742887 47.75518225596121 C209.07372838742887 47.75518225596121 222.20422198307938 52.9621279100403 222.20422198307938 52.9621279100403 C222.20422198307938 52.9621279100403 196.44213880296581 86.98082793574258 196.44213880296581 86.98082793574258 C196.44213880296581 86.98082793574258 187.39059093994788 80.0382371364649 187.39059093994788 80.0382371364649 C187.39059093994788 80.0382371364649 209.07372838742887 47.75518225596121 209.07372838742887 47.75518225596121 Z" vector-effect="non-scaling-stroke"/></defs> <path d="M102.24543896441571 47.13881356462889 C102.24543896441571 47.13881356462889 115.37593256006619 52.345759218708 115.37593256006619 52.345759218708 C115.37593256006619 52.345759218708 89.61384937995263 86.36445924441028 89.61384937995263 86.36445924441028 C89.61384937995263 86.36445924441028 80.56230151693467 79.42186844513259 80.56230151693467 79.42186844513259 C80.56230151693467 79.42186844513259 102.24543896441571 47.13881356462889 102.24543896441571 47.13881356462889 Z" style="stroke-width: 0; stroke-linecap: butt; stroke-linejoin: miter; fill: rgb(230, 230, 230);" vector-effect="non-scaling-stroke"/></g><g><defs><path id="path-1685715701618124191" d="M202.7884017231418 113.02639547667023 C202.7884017231418 113.02639547667023 207.47218496343348 128.40543725393397 217.5088633354868 120.71591892016816 C227.54554170754005 113.02640058640242 241.97360078809376 89.41932069819927 241.97360078809376 89.41932069819927 C241.97360078809376 89.41932069819927 234.236665546419 83.51754944871543 234.236665546419 83.51754944871543 C234.236665546419 83.51754944871543 217.5088682596634 102.34635532615823 217.5088682596634 102.34635532615823 C217.5088682596634 102.34635532615823 212.82508501937176 99.83420662987763 212.82508501937176 99.83420662987763 C212.82508501937176 99.83420662987763 202.78840664731842 113.02639547667022 202.78840664731842 113.02639547667022 C202.78840664731842 113.02639547667022 202.7884017231418 113.02639547667023 202.7884017231418 113.02639547667023 Z" vector-effect="non-scaling-stroke"/></defs> <path d="M51.74980430998767 113.15741195445969 C51.74980430998767 113.15741195445969 56.43358755027941 128.53645373172344 66.47026592233271 120.84693539795762 C76.5069442943859 113.15741706419186 90.9350033749397 89.55033717598872 90.9350033749397 89.55033717598872 C90.9350033749397 89.55033717598872 83.19806813326488 83.64856592650489 83.19806813326488 83.64856592650489 C83.19806813326488 83.64856592650489 66.47027084650927 102.47737180394768 66.47027084650927 102.47737180394768 C66.47027084650927 102.47737180394768 61.786487606217634 99.96522310766704 61.786487606217634 99.96522310766704 C61.786487606217634 99.96522310766704 51.74980923416433 113.15741195445969 51.74980923416433 113.15741195445969 C51.74980923416433 113.15741195445969 51.74980430998767 113.15741195445969 51.74980430998767 113.15741195445969 Z" style="stroke-width: 0; stroke-linecap: butt; stroke-linejoin: miter; fill: rgb(160, 97, 106);" vector-effect="non-scaling-stroke"/></g><g><defs><path id="path-1685715701618124189" d="M242.64270775538597 58.868983522210364 C242.64270775538597 58.868983522210364 227.25313425157086 68.5895437251102 227.25313425157086 68.5895437251102 C227.25313425157086 68.5895437251102 250.00293856155818 119.96965276445559 250.00293856155818 119.96965276445559 C250.00293856155818 119.96965276445559 264.72340509807987 99.13988090109888 264.72340509807987 99.13988090109888 C264.72340509807987 99.13988090109888 242.64270775538597 58.868983522210364 242.64270775538597 58.868983522210364 Z" vector-effect="non-scaling-stroke"/></defs> <path d="M44.3895735038152 59 C44.3895735038152 59 29 68.72056020289983 29 68.72056020289983 C29 68.72056020289983 51.749804309987326 120.1006692422452 51.749804309987326 120.1006692422452 C51.749804309987326 120.1006692422452 66.47027084650904 99.27089737888849 66.47027084650904 99.27089737888849 C66.47027084650904 99.27089737888849 44.3895735038152 59 44.3895735038152 59 Z" style="stroke-width: 0; stroke-linecap: butt; stroke-linejoin: miter; fill: rgb(213, 0, 37);" vector-effect="non-scaling-stroke"/></g><g><defs><path id="path-1685715701618124187" d="M209.2943361153469 83.86471232343844 C212.15827407055195 78.71730254881474 211.88558836511461 72.99020136990205 208.68527554541055 71.07287381280429 C205.48496272570634 69.1555462557065 200.5689161508026 71.77404526102906 197.70497819559742 76.92145503565281 C194.84104024039235 82.06886481027654 195.1137259458296 87.79596598918923 198.3140387655338 89.71329354628696 C201.51435158523793 91.63062110338475 206.43039816014172 89.01212209806218 209.2943361153469 83.86471232343844 Z" vector-effect="non-scaling-stroke"/></defs> <path d="M96.0184269024835 83.9957288012273 C98.88236485768857 78.84831902660363 98.60967915225115 73.1212178476909 95.40936633254705 71.20389029059316 C92.20905351284296 69.28656273349537 87.29300693793914 71.90506173881795 84.42906898273395 77.05247151344167 C81.56513102752888 82.1998812880654 81.83781673296619 87.92698246697807 85.0381295526704 89.84431002407587 C88.2384423723745 91.76163758117366 93.15448894727831 89.14313857585103 96.0184269024835 83.9957288012273 Z" style="stroke-width: 0; stroke-linecap: butt; stroke-linejoin: miter; fill: rgb(160, 97, 106);" vector-effect="non-scaling-stroke"/></g><g><defs><path id="path-1685715701624124225" d="M195.1951596423226 80.5575762200693 C190.3705300897126 64.78605750378465 185.19274013799551 59.79496708994005 179.74911400181344 62.919855907305184 C175.60570248204223 65.29836116166939 174.35860898599287 70.71237926962718 176.78685446194123 74.81891689916654 C182.9763796285815 85.28635305956992 195.7303932323047 109.2695062287948 193.07344562795976 125.16508244101148 C193.07344562795976 125.16508244101148 188.89581051767107 147.38137810794157 222.31689652403907 147.38137810794157 C255.73798253040744 147.38137810794157 287.766523500013 139.7445282287362 287.766523500013 139.7445282287362 C287.766523500013 139.7445282287362 270.35971054047684 136.96749190902509 270.35971054047684 136.96749190902509 C270.35971054047684 136.96749190902509 230.77455056886086 139.7868276401616 230.77455056886086 139.7868276401616 C221.73031986219252 140.43097527821715 214.10776446809075 132.71479931351925 215.31601247234298 123.75437484477222 C215.35589814813102 123.45858041005022 215.40320858550874 123.1595007329623 215.458338337025 122.85719712440799 C217.44298889536924 111.97416503162553 195.1951596423226 80.5575813293109 195.1951596423226 80.5575813293109 C195.1951596423226 80.5575813293109 195.1951596423226 80.5575762200693 195.1951596423226 80.5575762200693 Z" vector-effect="non-scaling-stroke"/></defs> <path d="M34.64120663891936 79.94120752873675 C29.816577086309394 64.16968881245214 24.63878713459235 59.178598398607505 19.1951609984103 62.303487215972666 C15.051749478639067 64.68199247033687 13.80465598258968 70.09601057829468 16.23290145853798 74.20254820783401 C22.422426625178332 84.66998436823741 35.17644022890147 108.65313753746227 32.519492624556506 124.54871374967894 C32.519492624556506 124.54871374967894 28.341857514267872 146.76500941660902 61.76294352063587 146.76500941660902 C95.18402952700421 146.76500941660902 127.21257049660983 139.1281595374037 127.21257049660983 139.1281595374037 C127.21257049660983 139.1281595374037 109.80575753707365 136.3511232176926 109.80575753707365 136.3511232176926 C109.80575753707365 136.3511232176926 70.22059756545764 139.17045894882904 70.22059756545764 139.17045894882904 C61.17636685878938 139.81460658688462 53.553811464687556 132.0984306221867 54.76205946893981 123.13800615343968 C54.801945144727824 122.84221171871769 54.84925558210557 122.54313204162975 54.9043853336218 122.24082843307548 C56.889035891966046 111.35779634029302 34.64120663891936 79.94121263797837 34.64120663891936 79.94121263797837 C34.64120663891936 79.94121263797837 34.64120663891936 79.94120752873675 34.64120663891936 79.94120752873675 Z" style="stroke-width: 0; stroke-linecap: butt; stroke-linejoin: miter; fill: rgb(63, 61, 86);" vector-effect="non-scaling-stroke"/></g><g><defs><path id="path-1685715701635124282" d="M289.54195489539 15.9251351296104 C291.0633809045762 20.183958240376153 287.72033727555356 24.606221135553113 283.20683318034895 24.305406672544567 C283.20683318034895 24.305406672544567 283.0993256479171 24.29824079843839 283.0993256479171 24.29824079843839 C283.0993256479171 24.29824079843839 283.09932057153924 24.29824079843839 283.09932057153924 24.29824079843839 C280.06523038152574 28.08981542260399 279.981424457788 33.45328441673783 282.8955699893682 37.33774643025538 C282.8955699893682 37.33774643025538 282.8955699893682 37.33774643025538 282.8955699893682 37.33774643025538 C283.13496689757267 42.34435793889179 282.3504685240492 47.34717336124533 280.5900415641397 52.04035400246249 C280.5900415641397 52.04035400246249 275.6438676226688 65.22651645433581 275.6438676226688 65.22651645433581 C275.6438676226688 65.22651645433581 268.0293006830276 61.67402929122902 268.0293006830276 61.67402929122902 C268.0293006830276 61.67402929122902 264.4157013378837 71.31648937325163 264.4157013378837 71.31648937325163 C264.4157013378837 71.31648937325163 243.15502837468796 60.367033739050314 243.15502837468796 60.367033739050314 C243.15502837468796 60.367033739050314 256.0402868696336 31.383179097052214 256.0402868696336 31.383179097052214 C256.0402868696336 31.383179097052214 259.9725050774218 15.658637692597457 259.9725050774218 15.658637692597457 C262.7700969710459 4.4713582677711 274.18492674978944 -2.262462349604549 285.33309947068454 0.6979571529356059 C285.33309947068454 0.6979571529356059 293.8861820911485 2.969244895649642 293.8861820911485 2.969244895649642 C300.64336402251973 4.763626461661565 304.5325751562332 11.836318829525975 302.4272184667137 18.501459720075434 C302.4272184667137 18.501459720075434 302.4272184667137 18.50146987003876 302.4272184667137 18.50146987003876 C302.4272184667137 18.50146987003876 289.541959971768 15.925124979647078 289.541959971768 15.925124979647078" vector-effect="non-scaling-stroke"/></defs> <path d="M46.38692652070199 15.92513052744573 C47.90835252988825 20.183953638211506 44.5653089008656 24.60621653338842 40.05180480566105 24.3054020703799 C40.05180480566105 24.3054020703799 39.944297273229154 24.298236196273706 39.944297273229154 24.298236196273706 C39.944297273229154 24.298236196273706 39.94429219685128 24.298236196273706 39.94429219685128 24.298236196273706 C36.910202006837835 28.08981082043931 36.82639608310001 33.45327981457319 39.740541614680296 37.337741828090714 C39.740541614680296 37.337741828090714 39.740541614680296 37.337741828090714 39.740541614680296 37.337741828090714 C39.97993852288471 42.344353336727124 39.195440149361275 47.34716875908066 37.43501318945175 52.04034940029783 C37.43501318945175 52.04034940029783 32.48883924798088 65.22651185217114 32.48883924798088 65.22651185217114 C32.48883924798088 65.22651185217114 24.87427230833964 61.67402468906437 24.87427230833964 61.67402468906437 C24.87427230833964 61.67402468906437 21.260672963195702 71.31648477108695 21.260672963195702 71.31648477108695 C21.260672963195702 71.31648477108695 0 60.36702913688566 0 60.36702913688566 C0 60.36702913688566 12.885258494945674 31.383174494887555 12.885258494945674 31.383174494887555 C12.885258494945674 31.383174494887555 16.817476702733757 15.658633090432772 16.817476702733757 15.658633090432772 C19.615068596358014 4.471353665606443 31.02989837510154 -2.262466951769227 42.17807109599653 0.6979525507709354 C42.17807109599653 0.6979525507709354 50.73115371646054 2.9692402934849724 50.73115371646054 2.9692402934849724 C57.48833564783172 4.7636218594968796 61.37754678154522 11.8363142273613 59.27219009202577 18.50145511791078 C59.27219009202577 18.50145511791078 59.27219009202577 18.501465267874096 59.27219009202577 18.501465267874096 C59.27219009202577 18.501465267874096 46.38693159708009 15.925120377482415 46.38693159708009 15.925120377482415" style="stroke-width: 0; stroke-linecap: butt; stroke-linejoin: miter; fill: rgb(47, 46, 65);" vector-effect="non-scaling-stroke"/></g></svg>
